<ttFont>
    <TTGlyph name=".notdef" xMin="32" yMin="-79" xMax="946" yMax="609">
      <contour>
        <pt x="662" y="158" on="1"/>
        <pt x="664" y="158" on="0"/>
        <pt x="673" y="168" on="0"/>
        <pt x="682" y="179" on="0"/>
        <pt x="689" y="190" on="0"/>
        <pt x="689" y="192" on="1"/>
        <pt x="677" y="203" on="0"/>
        <pt x="628" y="244" on="0"/>
        <pt x="599" y="270" on="1"/>
        <pt x="623" y="302" on="0"/>
        <pt x="662" y="353" on="0"/>
        <pt x="672" y="367" on="1"/>
        <pt x="666" y="372" on="0"/>
        <pt x="645" y="388" on="0"/>
        <pt x="635" y="393" on="1"/>
        <pt x="561" y="300" on="1"/>
        <pt x="531" y="324" on="0"/>
        <pt x="478" y="363" on="0"/>
        <pt x="464" y="373" on="1"/>
        <pt x="459" y="367" on="0"/>
        <pt x="443" y="346" on="0"/>
        <pt x="438" y="334" on="1"/>
        <pt x="529" y="262" on="1"/>
        <pt x="457" y="169" on="1"/>
        <pt x="457" y="167" on="0"/>
        <pt x="467" y="157" on="0"/>
        <pt x="478" y="148" on="0"/>
        <pt x="489" y="142" on="0"/>
        <pt x="491" y="142" on="1"/>
        <pt x="569" y="230" on="1"/>
      </contour>
      <contour>
        <pt x="881" y="471" on="1"/>
        <pt x="880" y="472" on="1"/>
        <pt x="880" y="435" on="0"/>
        <pt x="863" y="341" on="0"/>
        <pt x="812" y="237" on="0"/>
        <pt x="718" y="127" on="0"/>
        <pt x="639" y="73" on="1"/>
        <pt x="639" y="68" on="0"/>
        <pt x="632" y="49" on="0"/>
        <pt x="621" y="49" on="1"/>
        <pt x="609" y="37" on="1"/>
        <pt x="632" y="29" on="0"/>
        <pt x="681" y="10" on="0"/>
        <pt x="704" y="-1" on="1"/>
        <pt x="709" y="-1" on="0"/>
        <pt x="719" y="0" on="0"/>
        <pt x="725" y="0" on="1"/>
        <pt x="739" y="0" on="0"/>
        <pt x="770" y="-7" on="0"/>
        <pt x="787" y="-19" on="1"/>
        <pt x="787" y="-23" on="0"/>
        <pt x="785" y="-24" on="0"/>
        <pt x="783" y="-26" on="1"/>
        <pt x="769" y="-19" on="0"/>
        <pt x="744" y="-11" on="0"/>
        <pt x="725" y="-13" on="1"/>
        <pt x="735" y="-18" on="0"/>
        <pt x="754" y="-31" on="0"/>
        <pt x="762" y="-43" on="1"/>
        <pt x="760" y="-48" on="0"/>
        <pt x="753" y="-49" on="1"/>
        <pt x="739" y="-35" on="0"/>
        <pt x="708" y="-16" on="0"/>
        <pt x="689" y="-17" on="1"/>
        <pt x="681" y="-17" on="0"/>
        <pt x="669" y="-19" on="0"/>
        <pt x="659" y="-22" on="0"/>
        <pt x="647" y="-27" on="0"/>
        <pt x="638" y="-31" on="1"/>
        <pt x="636" y="-29" on="0"/>
        <pt x="633" y="-30" on="0"/>
        <pt x="632" y="-25" on="1"/>
        <pt x="642" y="-14" on="0"/>
        <pt x="660" y="-9" on="0"/>
        <pt x="675" y="-4" on="1"/>
        <pt x="659" y="5" on="0"/>
        <pt x="628" y="17" on="0"/>
        <pt x="603" y="25" on="0"/>
        <pt x="588" y="31" on="0"/>
        <pt x="588" y="34" on="1"/>
        <pt x="588" y="40" on="0"/>
        <pt x="599" y="49" on="1"/>
        <pt x="591" y="49" on="0"/>
        <pt x="581" y="65" on="0"/>
        <pt x="580" y="68" on="1"/>
        <pt x="553" y="68" on="1"/>
        <pt x="539" y="68" on="0"/>
        <pt x="512" y="70" on="0"/>
        <pt x="498" y="72" on="1"/>
        <pt x="496" y="66" on="0"/>
        <pt x="483" y="47" on="0"/>
        <pt x="471" y="49" on="1"/>
        <pt x="459" y="42" on="0"/>
        <pt x="456" y="39" on="1"/>
        <pt x="476" y="26" on="0"/>
        <pt x="519" y="-1" on="0"/>
        <pt x="540" y="-18" on="1"/>
        <pt x="548" y="-20" on="0"/>
        <pt x="566" y="-22" on="0"/>
        <pt x="585" y="-28" on="0"/>
        <pt x="603" y="-39" on="0"/>
        <pt x="612" y="-51" on="1"/>
        <pt x="612" y="-55" on="0"/>
        <pt x="609" y="-56" on="0"/>
        <pt x="607" y="-58" on="1"/>
        <pt x="595" y="-47" on="0"/>
        <pt x="578" y="-38" on="0"/>
        <pt x="558" y="-35" on="1"/>
        <pt x="577" y="-47" on="0"/>
        <pt x="585" y="-74" on="1"/>
        <pt x="583" y="-79" on="0"/>
        <pt x="577" y="-78" on="1"/>
        <pt x="567" y="-62" on="0"/>
        <pt x="542" y="-35" on="0"/>
        <pt x="524" y="-31" on="1"/>
        <pt x="519" y="-30" on="0"/>
        <pt x="509" y="-29" on="0"/>
        <pt x="504" y="-29" on="1"/>
        <pt x="492" y="-29" on="0"/>
        <pt x="467" y="-33" on="0"/>
        <pt x="454" y="-36" on="1"/>
        <pt x="451" y="-32" on="0"/>
        <pt x="451" y="-28" on="1"/>
        <pt x="463" y="-20" on="0"/>
        <pt x="492" y="-17" on="0"/>
        <pt x="508" y="-16" on="1"/>
        <pt x="495" y="-6" on="0"/>
        <pt x="469" y="12" on="0"/>
        <pt x="447" y="26" on="0"/>
        <pt x="433" y="37" on="0"/>
        <pt x="433" y="41" on="1"/>
        <pt x="433" y="46" on="0"/>
        <pt x="440" y="50" on="0"/>
        <pt x="446" y="55" on="1"/>
        <pt x="439" y="62" on="0"/>
        <pt x="438" y="81" on="0"/>
        <pt x="439" y="87" on="1"/>
        <pt x="395" y="111" on="0"/>
        <pt x="328" y="171" on="0"/>
        <pt x="276" y="233" on="0"/>
        <pt x="239" y="292" on="0"/>
        <pt x="225" y="315" on="1"/>
        <pt x="171" y="333" on="0"/>
        <pt x="71" y="370" on="0"/>
        <pt x="39" y="396" on="1"/>
        <pt x="32" y="402" on="0"/>
        <pt x="35" y="418" on="0"/>
        <pt x="45" y="418" on="1"/>
        <pt x="301" y="396" on="1"/>
        <pt x="386" y="413" on="0"/>
        <pt x="505" y="435" on="0"/>
        <pt x="583" y="454" on="0"/>
        <pt x="627" y="475" on="0"/>
        <pt x="638" y="491" on="1"/>
        <pt x="668" y="545" on="0"/>
        <pt x="731" y="589" on="0"/>
        <pt x="774" y="589" on="1"/>
        <pt x="788" y="589" on="0"/>
        <pt x="811" y="585" on="0"/>
        <pt x="821" y="582" on="1"/>
        <pt x="821" y="583" on="1"/>
        <pt x="895" y="609" on="1"/>
        <pt x="898" y="609" on="0"/>
        <pt x="898" y="607" on="1"/>
        <pt x="898" y="606" on="1"/>
        <pt x="873" y="537" on="1"/>
        <pt x="943" y="540" on="1"/>
        <pt x="946" y="540" on="0"/>
        <pt x="945" y="537" on="1"/>
      </contour>
    </TTGlyph>
    <TTGlyph name="A" xMin="92" yMin="0" xMax="524" yMax="691">
      <contour>
        <pt x="524" y="0" on="1"/>
        <pt x="426" y="0" on="1"/>
        <pt x="426" y="259" on="1"/>
        <pt x="191" y="259" on="1"/>
        <pt x="191" y="0" on="1"/>
        <pt x="92" y="0" on="1"/>
        <pt x="92" y="604" on="1"/>
        <pt x="179" y="691" on="1"/>
        <pt x="524" y="691" on="1"/>
      </contour>
      <contour>
        <pt x="488" y="604" on="1"/>
        <pt x="191" y="604" on="1"/>
        <pt x="191" y="271" on="1"/>
        <pt x="266" y="346" on="1"/>
        <pt x="426" y="346" on="1"/>
        <pt x="426" y="542" on="1"/>
      </contour>
    </TTGlyph>
    <TTGlyph name="AE" xMin="92" yMin="0" xMax="734" yMax="691">
      <contour>
        <pt x="734" y="0" on="1"/>
        <pt x="401" y="0" on="1"/>
        <pt x="401" y="259" on="1"/>
        <pt x="191" y="259" on="1"/>
        <pt x="191" y="0" on="1"/>
        <pt x="92" y="0" on="1"/>
        <pt x="92" y="604" on="1"/>
        <pt x="179" y="691" on="1"/>
        <pt x="734" y="691" on="1"/>
        <pt x="734" y="604" on="1"/>
        <pt x="500" y="604" on="1"/>
        <pt x="500" y="358" on="1"/>
        <pt x="573" y="432" on="1"/>
        <pt x="734" y="432" on="1"/>
        <pt x="734" y="346" on="1"/>
        <pt x="500" y="346" on="1"/>
        <pt x="500" y="87" on="1"/>
        <pt x="734" y="87" on="1"/>
      </contour>
      <contour>
        <pt x="464" y="604" on="1"/>
        <pt x="191" y="604" on="1"/>
        <pt x="191" y="271" on="1"/>
        <pt x="266" y="346" on="1"/>
        <pt x="401" y="346" on="1"/>
        <pt x="401" y="543" on="1"/>
      </contour>
    </TTGlyph>
    <TTGlyph name="Aacute" xMin="92" yMin="0" xMax="524" yMax="901">
      <component glyphName="A" x="0" y="0" flags="0x204"/>
      <component glyphName="acute.case" x="247" y="0" flags="0x4"/>
    </TTGlyph>
    <TTGlyph name="Acircumflex" xMin="92" yMin="0" xMax="524" yMax="936">
      <component glyphName="A" x="0" y="0" flags="0x204"/>
      <component glyphName="circumflex.case" x="154" y="0" flags="0x4"/>
    </TTGlyph>
    <TTGlyph name="Adieresis" xMin="92" yMin="0" xMax="524" yMax="889">
      <component glyphName="A" x="0" y="0" flags="0x204"/>
      <component glyphName="dieresis" x="170" y="173" flags="0x4"/>
    </TTGlyph>
    <TTGlyph name="Agrave" xMin="92" yMin="0" xMax="524" yMax="901">
      <component glyphName="A" x="0" y="0" flags="0x204"/>
      <component glyphName="grave.case" x="148" y="0" flags="0x4"/>
    </TTGlyph>
    <TTGlyph name="Aring" xMin="92" yMin="0" xMax="524" yMax="902">
      <contour>
        <pt x="438" y="753" on="1"/>
        <pt x="374" y="691" on="1"/>
        <pt x="524" y="691" on="1"/>
        <pt x="524" y="0" on="1"/>
        <pt x="426" y="0" on="1"/>
        <pt x="426" y="259" on="1"/>
        <pt x="191" y="259" on="1"/>
        <pt x="191" y="0" on="1"/>
        <pt x="92" y="0" on="1"/>
        <pt x="92" y="604" on="1"/>
        <pt x="179" y="691" on="1"/>
        <pt x="267" y="691" on="1"/>
        <pt x="203" y="753" on="1"/>
        <pt x="203" y="840" on="1"/>
        <pt x="268" y="902" on="1"/>
        <pt x="376" y="902" on="1"/>
        <pt x="438" y="840" on="1"/>
      </contour>
      <contour>
        <pt x="488" y="604" on="1"/>
        <pt x="191" y="604" on="1"/>
        <pt x="191" y="271" on="1"/>
        <pt x="266" y="346" on="1"/>
        <pt x="426" y="346" on="1"/>
        <pt x="426" y="542" on="1"/>
      </contour>
      <contour>
        <pt x="389" y="797" on="1"/>
        <pt x="323" y="863" on="1"/>
        <pt x="257" y="797" on="1"/>
        <pt x="322" y="730" on="1"/>
      </contour>
    </TTGlyph>
    <TTGlyph name="Atilde" xMin="92" yMin="0" xMax="524" yMax="920">
      <component glyphName="A" x="0" y="0" flags="0x204"/>
      <component glyphName="tilde.case" x="154" y="0" flags="0x4"/>
    </TTGlyph>
    <TTGlyph name="B" xMin="87" yMin="0" xMax="531" yMax="691">
      <contour>
        <pt x="531" y="87" on="1"/>
        <pt x="444" y="0" on="1"/>
        <pt x="99" y="0" on="1"/>
        <pt x="99" y="519" on="1"/>
        <pt x="186" y="604" on="1"/>
        <pt x="87" y="604" on="1"/>
        <pt x="87" y="691" on="1"/>
        <pt x="370" y="691" on="1"/>
        <pt x="457" y="604" on="1"/>
        <pt x="457" y="481" on="1"/>
        <pt x="396" y="420" on="1"/>
        <pt x="457" y="420" on="1"/>
        <pt x="531" y="346" on="1"/>
      </contour>
      <contour>
        <pt x="358" y="420" on="1"/>
        <pt x="358" y="604" on="1"/>
        <pt x="198" y="604" on="1"/>
        <pt x="198" y="346" on="1"/>
        <pt x="271" y="420" on="1"/>
      </contour>
      <contour>
        <pt x="432" y="87" on="1"/>
        <pt x="432" y="346" on="1"/>
        <pt x="198" y="346" on="1"/>
        <pt x="198" y="87" on="1"/>
      </contour>
    </TTGlyph>
    <TTGlyph name="C" xMin="87" yMin="0" xMax="507" yMax="691">
      <contour>
        <pt x="507" y="87" on="1"/>
        <pt x="420" y="0" on="1"/>
        <pt x="173" y="0" on="1"/>
        <pt x="87" y="87" on="1"/>
        <pt x="87" y="604" on="1"/>
        <pt x="173" y="691" on="1"/>
        <pt x="420" y="691" on="1"/>
        <pt x="507" y="604" on="1"/>
        <pt x="507" y="532" on="1"/>
        <pt x="408" y="432" on="1"/>
        <pt x="408" y="604" on="1"/>
        <pt x="186" y="604" on="1"/>
        <pt x="186" y="87" on="1"/>
        <pt x="408" y="87" on="1"/>
        <pt x="408" y="160" on="1"/>
        <pt x="507" y="259" on="1"/>
      </contour>
    </TTGlyph>
    <TTGlyph name="Ccedilla" xMin="87" yMin="-259" xMax="507" yMax="691">
      <contour>
        <pt x="507" y="87" on="1"/>
        <pt x="420" y="0" on="1"/>
        <pt x="309" y="0" on="1"/>
        <pt x="309" y="-63" on="1"/>
        <pt x="370" y="-63" on="1"/>
        <pt x="444" y="-136" on="1"/>
        <pt x="444" y="-186" on="1"/>
        <pt x="368" y="-259" on="1"/>
        <pt x="222" y="-259" on="1"/>
        <pt x="148" y="-186" on="1"/>
        <pt x="346" y="-186" on="1"/>
        <pt x="346" y="-123" on="1"/>
        <pt x="234" y="-123" on="1"/>
        <pt x="234" y="-59" on="1"/>
        <pt x="297" y="0" on="1"/>
        <pt x="173" y="0" on="1"/>
        <pt x="87" y="87" on="1"/>
        <pt x="87" y="604" on="1"/>
        <pt x="173" y="691" on="1"/>
        <pt x="420" y="691" on="1"/>
        <pt x="507" y="604" on="1"/>
        <pt x="507" y="532" on="1"/>
        <pt x="408" y="432" on="1"/>
        <pt x="408" y="604" on="1"/>
        <pt x="186" y="604" on="1"/>
        <pt x="186" y="87" on="1"/>
        <pt x="408" y="87" on="1"/>
        <pt x="408" y="160" on="1"/>
        <pt x="507" y="258" on="1"/>
      </contour>
    </TTGlyph>
    <TTGlyph name="D" xMin="87" yMin="0" xMax="531" yMax="691">
      <contour>
        <pt x="531" y="87" on="1"/>
        <pt x="444" y="0" on="1"/>
        <pt x="99" y="0" on="1"/>
        <pt x="99" y="519" on="1"/>
        <pt x="186" y="604" on="1"/>
        <pt x="87" y="604" on="1"/>
        <pt x="87" y="691" on="1"/>
        <pt x="444" y="691" on="1"/>
        <pt x="531" y="604" on="1"/>
      </contour>
      <contour>
        <pt x="432" y="87" on="1"/>
        <pt x="432" y="604" on="1"/>
        <pt x="198" y="604" on="1"/>
        <pt x="198" y="12" on="1"/>
        <pt x="271" y="87" on="1"/>
      </contour>
    </TTGlyph>
    <TTGlyph name="E" xMin="87" yMin="0" xMax="444" yMax="691">
      <contour>
        <pt x="444" y="0" on="1"/>
        <pt x="99" y="0" on="1"/>
        <pt x="99" y="519" on="1"/>
        <pt x="186" y="604" on="1"/>
        <pt x="87" y="604" on="1"/>
        <pt x="87" y="691" on="1"/>
        <pt x="444" y="691" on="1"/>
        <pt x="444" y="604" on="1"/>
        <pt x="198" y="604" on="1"/>
        <pt x="198" y="358" on="1"/>
        <pt x="271" y="432" on="1"/>
        <pt x="444" y="432" on="1"/>
        <pt x="444" y="346" on="1"/>
        <pt x="198" y="346" on="1"/>
        <pt x="198" y="87" on="1"/>
        <pt x="444" y="87" on="1"/>
      </contour>
    </TTGlyph>
    <TTGlyph name="Eacute" xMin="87" yMin="0" xMax="444" yMax="901">
      <component glyphName="E" x="0" y="0" flags="0x204"/>
      <component glyphName="acute.case" x="191" y="0" flags="0x4"/>
    </TTGlyph>
    <TTGlyph name="Ecircumflex" xMin="87" yMin="0" xMax="444" yMax="936">
      <component glyphName="E" x="0" y="0" flags="0x204"/>
      <component glyphName="circumflex.case" x="110" y="0" flags="0x4"/>
    </TTGlyph>
    <TTGlyph name="Edieresis" xMin="87" yMin="0" xMax="444" yMax="889">
      <component glyphName="E" x="0" y="0" flags="0x204"/>
      <component glyphName="dieresis" x="114" y="173" flags="0x4"/>
    </TTGlyph>
    <TTGlyph name="Egrave" xMin="87" yMin="0" xMax="444" yMax="901">
      <component glyphName="E" x="0" y="0" flags="0x204"/>
      <component glyphName="grave.case" x="99" y="0" flags="0x4"/>
    </TTGlyph>
    <TTGlyph name="Eth" xMin="7" yMin="0" xMax="537" yMax="691">
      <contour>
        <pt x="537" y="87" on="1"/>
        <pt x="451" y="0" on="1"/>
        <pt x="104" y="0" on="1"/>
        <pt x="104" y="346" on="1"/>
        <pt x="7" y="346" on="1"/>
        <pt x="92" y="432" on="1"/>
        <pt x="104" y="432" on="1"/>
        <pt x="104" y="521" on="1"/>
        <pt x="191" y="604" on="1"/>
        <pt x="92" y="604" on="1"/>
        <pt x="92" y="691" on="1"/>
        <pt x="451" y="691" on="1"/>
        <pt x="537" y="604" on="1"/>
      </contour>
      <contour>
        <pt x="438" y="87" on="1"/>
        <pt x="438" y="604" on="1"/>
        <pt x="203" y="604" on="1"/>
        <pt x="203" y="432" on="1"/>
        <pt x="358" y="432" on="1"/>
        <pt x="270" y="346" on="1"/>
        <pt x="203" y="346" on="1"/>
        <pt x="203" y="12" on="1"/>
        <pt x="278" y="87" on="1"/>
      </contour>
    </TTGlyph>
    <TTGlyph name="Euro" xMin="62" yMin="0" xMax="568" yMax="691">
      <contour>
        <pt x="568" y="691" on="1"/>
        <pt x="481" y="604" on="1"/>
        <pt x="247" y="604" on="1"/>
        <pt x="247" y="519" on="1"/>
        <pt x="464" y="519" on="1"/>
        <pt x="377" y="432" on="1"/>
        <pt x="247" y="432" on="1"/>
        <pt x="247" y="346" on="1"/>
        <pt x="358" y="346" on="1"/>
        <pt x="270" y="259" on="1"/>
        <pt x="247" y="259" on="1"/>
        <pt x="247" y="87" on="1"/>
        <pt x="502" y="87" on="1"/>
        <pt x="502" y="0" on="1"/>
        <pt x="234" y="0" on="1"/>
        <pt x="148" y="87" on="1"/>
        <pt x="148" y="259" on="1"/>
        <pt x="62" y="259" on="1"/>
        <pt x="148" y="346" on="1"/>
        <pt x="148" y="432" on="1"/>
        <pt x="62" y="432" on="1"/>
        <pt x="148" y="519" on="1"/>
        <pt x="148" y="604" on="1"/>
        <pt x="234" y="691" on="1"/>
      </contour>
    </TTGlyph>
    <TTGlyph name="F" xMin="87" yMin="0" xMax="444" yMax="691">
      <contour>
        <pt x="444" y="259" on="1"/>
        <pt x="198" y="259" on="1"/>
        <pt x="198" y="0" on="1"/>
        <pt x="99" y="0" on="1"/>
        <pt x="99" y="519" on="1"/>
        <pt x="186" y="604" on="1"/>
        <pt x="87" y="604" on="1"/>
        <pt x="87" y="691" on="1"/>
        <pt x="444" y="691" on="1"/>
        <pt x="444" y="604" on="1"/>
        <pt x="198" y="604" on="1"/>
        <pt x="198" y="271" on="1"/>
        <pt x="271" y="346" on="1"/>
        <pt x="444" y="346" on="1"/>
      </contour>
    </TTGlyph>
    <TTGlyph name="G" xMin="87" yMin="0" xMax="543" yMax="691">
      <contour>
        <pt x="543" y="604" on="1"/>
        <pt x="186" y="604" on="1"/>
        <pt x="186" y="87" on="1"/>
        <pt x="420" y="87" on="1"/>
        <pt x="420" y="346" on="1"/>
        <pt x="259" y="346" on="1"/>
        <pt x="346" y="432" on="1"/>
        <pt x="519" y="432" on="1"/>
        <pt x="519" y="0" on="1"/>
        <pt x="420" y="0" on="1"/>
        <pt x="420" y="74" on="1"/>
        <pt x="346" y="0" on="1"/>
        <pt x="173" y="0" on="1"/>
        <pt x="87" y="87" on="1"/>
        <pt x="87" y="604" on="1"/>
        <pt x="173" y="691" on="1"/>
        <pt x="456" y="691" on="1"/>
      </contour>
    </TTGlyph>
    <TTGlyph name="H" xMin="99" yMin="0" xMax="531" yMax="691">
      <contour>
        <pt x="531" y="0" on="1"/>
        <pt x="432" y="0" on="1"/>
        <pt x="432" y="346" on="1"/>
        <pt x="198" y="346" on="1"/>
        <pt x="198" y="0" on="1"/>
        <pt x="99" y="0" on="1"/>
        <pt x="99" y="691" on="1"/>
        <pt x="198" y="691" on="1"/>
        <pt x="198" y="358" on="1"/>
        <pt x="271" y="432" on="1"/>
        <pt x="432" y="432" on="1"/>
        <pt x="432" y="691" on="1"/>
        <pt x="531" y="691" on="1"/>
      </contour>
    </TTGlyph>
    <TTGlyph name="I" xMin="99" yMin="0" xMax="198" yMax="691">
      <contour>
        <pt x="198" y="0" on="1"/>
        <pt x="99" y="0" on="1"/>
        <pt x="99" y="691" on="1"/>
        <pt x="198" y="691" on="1"/>
      </contour>
    </TTGlyph>
    <TTGlyph name="Iacute" xMin="74" yMin="0" xMax="321" yMax="901">
      <component glyphName="I" x="0" y="0" flags="0x204"/>
      <component glyphName="acute.case" x="74" y="0" flags="0x4"/>
    </TTGlyph>
    <TTGlyph name="Icircumflex" xMin="-8" yMin="0" xMax="301" yMax="936">
      <component glyphName="I" x="0" y="0" flags="0x204"/>
      <component glyphName="circumflex.case" x="-8" y="0" flags="0x4"/>
    </TTGlyph>
    <TTGlyph name="Idieresis" xMin="15" yMin="0" xMax="287" yMax="889">
      <component glyphName="I" x="0" y="0" flags="0x204"/>
      <component glyphName="dieresis" x="3" y="173" flags="0x4"/>
    </TTGlyph>
    <TTGlyph name="Igrave" xMin="-36" yMin="0" xMax="211" yMax="901">
      <component glyphName="I" x="0" y="0" flags="0x204"/>
      <component glyphName="grave.case" x="-36" y="0" flags="0x4"/>
    </TTGlyph>
    <TTGlyph name="J" xMin="49" yMin="0" xMax="420" yMax="691">
      <contour>
        <pt x="420" y="87" on="1"/>
        <pt x="333" y="0" on="1"/>
        <pt x="136" y="0" on="1"/>
        <pt x="49" y="87" on="1"/>
        <pt x="49" y="170" on="1"/>
        <pt x="148" y="268" on="1"/>
        <pt x="148" y="87" on="1"/>
        <pt x="321" y="87" on="1"/>
        <pt x="321" y="604" on="1"/>
        <pt x="62" y="604" on="1"/>
        <pt x="62" y="691" on="1"/>
        <pt x="420" y="691" on="1"/>
      </contour>
    </TTGlyph>
    <TTGlyph name="K" xMin="99" yMin="0" xMax="531" yMax="691">
      <contour>
        <pt x="531" y="0" on="1"/>
        <pt x="432" y="0" on="1"/>
        <pt x="432" y="346" on="1"/>
        <pt x="198" y="346" on="1"/>
        <pt x="198" y="0" on="1"/>
        <pt x="99" y="0" on="1"/>
        <pt x="99" y="691" on="1"/>
        <pt x="198" y="691" on="1"/>
        <pt x="198" y="362" on="1"/>
        <pt x="420" y="579" on="1"/>
        <pt x="420" y="691" on="1"/>
        <pt x="519" y="691" on="1"/>
        <pt x="518" y="569" on="1"/>
        <pt x="381" y="436" on="1"/>
        <pt x="381" y="423" on="1"/>
        <pt x="444" y="423" on="1"/>
        <pt x="531" y="337" on="1"/>
      </contour>
    </TTGlyph>
    <TTGlyph name="L" xMin="99" yMin="0" xMax="519" yMax="691">
      <contour>
        <pt x="519" y="0" on="1"/>
        <pt x="99" y="0" on="1"/>
        <pt x="99" y="691" on="1"/>
        <pt x="198" y="691" on="1"/>
        <pt x="198" y="87" on="1"/>
        <pt x="420" y="87" on="1"/>
        <pt x="420" y="173" on="1"/>
        <pt x="519" y="271" on="1"/>
      </contour>
    </TTGlyph>
    <TTGlyph name="M" xMin="99" yMin="1" xMax="667" yMax="691">
      <contour>
        <pt x="667" y="1" on="1"/>
        <pt x="568" y="1" on="1"/>
        <pt x="568" y="542" on="1"/>
        <pt x="630" y="603" on="1"/>
        <pt x="549" y="603" on="1"/>
        <pt x="416" y="346" on="1"/>
        <pt x="344" y="346" on="1"/>
        <pt x="216" y="603" on="1"/>
        <pt x="136" y="603" on="1"/>
        <pt x="198" y="542" on="1"/>
        <pt x="198" y="1" on="1"/>
        <pt x="99" y="1" on="1"/>
        <pt x="99" y="691" on="1"/>
        <pt x="276" y="691" on="1"/>
        <pt x="379" y="464" on="1"/>
        <pt x="391" y="464" on="1"/>
        <pt x="496" y="691" on="1"/>
        <pt x="667" y="691" on="1"/>
      </contour>
    </TTGlyph>
    <TTGlyph name="N" xMin="99" yMin="1" xMax="580" yMax="692">
      <contour>
        <pt x="580" y="1" on="1"/>
        <pt x="389" y="1" on="1"/>
        <pt x="221" y="603" on="1"/>
        <pt x="136" y="603" on="1"/>
        <pt x="198" y="544" on="1"/>
        <pt x="198" y="1" on="1"/>
        <pt x="99" y="1" on="1"/>
        <pt x="99" y="692" on="1"/>
        <pt x="291" y="692" on="1"/>
        <pt x="457" y="88" on="1"/>
        <pt x="543" y="88" on="1"/>
        <pt x="481" y="151" on="1"/>
        <pt x="481" y="692" on="1"/>
        <pt x="580" y="692" on="1"/>
      </contour>
    </TTGlyph>
    <TTGlyph name="Ntilde" xMin="99" yMin="1" xMax="580" yMax="920">
      <component glyphName="N" x="0" y="0" flags="0x204"/>
      <component glyphName="tilde.case" x="159" y="0" flags="0x4"/>
    </TTGlyph>
    <TTGlyph name="O" xMin="87" yMin="0" xMax="519" yMax="691">
      <contour>
        <pt x="519" y="87" on="1"/>
        <pt x="432" y="0" on="1"/>
        <pt x="173" y="0" on="1"/>
        <pt x="87" y="87" on="1"/>
        <pt x="87" y="604" on="1"/>
        <pt x="173" y="691" on="1"/>
        <pt x="432" y="691" on="1"/>
        <pt x="519" y="604" on="1"/>
      </contour>
      <contour>
        <pt x="420" y="87" on="1"/>
        <pt x="420" y="604" on="1"/>
        <pt x="186" y="604" on="1"/>
        <pt x="186" y="87" on="1"/>
      </contour>
    </TTGlyph>
    <TTGlyph name="OE" xMin="87" yMin="0" xMax="729" yMax="691">
      <contour>
        <pt x="729" y="0" on="1"/>
        <pt x="493" y="0" on="1"/>
        <pt x="444" y="49" on="1"/>
        <pt x="396" y="0" on="1"/>
        <pt x="173" y="0" on="1"/>
        <pt x="87" y="87" on="1"/>
        <pt x="87" y="604" on="1"/>
        <pt x="173" y="691" on="1"/>
        <pt x="396" y="691" on="1"/>
        <pt x="444" y="642" on="1"/>
        <pt x="493" y="691" on="1"/>
        <pt x="729" y="691" on="1"/>
        <pt x="729" y="604" on="1"/>
        <pt x="493" y="604" on="1"/>
        <pt x="493" y="358" on="1"/>
        <pt x="568" y="432" on="1"/>
        <pt x="729" y="432" on="1"/>
        <pt x="729" y="346" on="1"/>
        <pt x="493" y="346" on="1"/>
        <pt x="493" y="87" on="1"/>
        <pt x="729" y="87" on="1"/>
      </contour>
      <contour>
        <pt x="396" y="87" on="1"/>
        <pt x="396" y="604" on="1"/>
        <pt x="186" y="604" on="1"/>
        <pt x="186" y="87" on="1"/>
      </contour>
    </TTGlyph>
    <TTGlyph name="Oacute" xMin="87" yMin="0" xMax="519" yMax="901">
      <component glyphName="O" x="0" y="0" flags="0x204"/>
      <component glyphName="acute.case" x="234" y="0" flags="0x4"/>
    </TTGlyph>
    <TTGlyph name="Ocircumflex" xMin="87" yMin="0" xMax="519" yMax="936">
      <component glyphName="O" x="0" y="0" flags="0x204"/>
      <component glyphName="circumflex.case" x="147" y="0" flags="0x4"/>
    </TTGlyph>
    <TTGlyph name="Odieresis" xMin="87" yMin="0" xMax="519" yMax="889">
      <component glyphName="O" x="0" y="0" flags="0x204"/>
      <component glyphName="dieresis" x="156" y="173" flags="0x4"/>
    </TTGlyph>
    <TTGlyph name="Ograve" xMin="87" yMin="0" xMax="519" yMax="901">
      <component glyphName="O" x="0" y="0" flags="0x204"/>
      <component glyphName="grave.case" x="123" y="0" flags="0x4"/>
    </TTGlyph>
    <TTGlyph name="Oslash" xMin="37" yMin="-56" xMax="580" yMax="753">
      <contour>
        <pt x="580" y="697" on="1"/>
        <pt x="524" y="612" on="1"/>
        <pt x="524" y="87" on="1"/>
        <pt x="438" y="0" on="1"/>
        <pt x="192" y="0" on="1"/>
        <pt x="156" y="37" on="1"/>
        <pt x="88" y="-56" on="1"/>
        <pt x="37" y="-2" on="1"/>
        <pt x="92" y="77" on="1"/>
        <pt x="92" y="604" on="1"/>
        <pt x="180" y="691" on="1"/>
        <pt x="419" y="691" on="1"/>
        <pt x="456" y="653" on="1"/>
        <pt x="522" y="753" on="1"/>
      </contour>
      <contour>
        <pt x="426" y="579" on="1"/>
        <pt x="426" y="604" on="1"/>
        <pt x="191" y="604" on="1"/>
        <pt x="191" y="233" on="1"/>
        <pt x="198" y="233" on="1"/>
      </contour>
      <contour>
        <pt x="426" y="454" on="1"/>
        <pt x="420" y="454" on="1"/>
        <pt x="191" y="109" on="1"/>
        <pt x="191" y="87" on="1"/>
        <pt x="426" y="87" on="1"/>
      </contour>
    </TTGlyph>
    <TTGlyph name="Otilde" xMin="87" yMin="0" xMax="519" yMax="920">
      <component glyphName="O" x="0" y="0" flags="0x204"/>
      <component glyphName="tilde.case" x="130" y="0" flags="0x4"/>
    </TTGlyph>
    <TTGlyph name="P" xMin="87" yMin="0" xMax="531" yMax="691">
      <contour>
        <pt x="531" y="346" on="1"/>
        <pt x="444" y="259" on="1"/>
        <pt x="198" y="259" on="1"/>
        <pt x="198" y="0" on="1"/>
        <pt x="99" y="0" on="1"/>
        <pt x="99" y="519" on="1"/>
        <pt x="186" y="604" on="1"/>
        <pt x="87" y="604" on="1"/>
        <pt x="87" y="691" on="1"/>
        <pt x="444" y="691" on="1"/>
        <pt x="531" y="604" on="1"/>
      </contour>
      <contour>
        <pt x="432" y="346" on="1"/>
        <pt x="432" y="604" on="1"/>
        <pt x="198" y="604" on="1"/>
        <pt x="198" y="271" on="1"/>
        <pt x="271" y="346" on="1"/>
      </contour>
    </TTGlyph>
    <TTGlyph name="Q" xMin="87" yMin="-182" xMax="519" yMax="691">
      <contour>
        <pt x="519" y="87" on="1"/>
        <pt x="431" y="0" on="1"/>
        <pt x="346" y="0" on="1"/>
        <pt x="346" y="-182" on="1"/>
        <pt x="259" y="-99" on="1"/>
        <pt x="259" y="0" on="1"/>
        <pt x="173" y="0" on="1"/>
        <pt x="87" y="87" on="1"/>
        <pt x="87" y="604" on="1"/>
        <pt x="173" y="691" on="1"/>
        <pt x="432" y="691" on="1"/>
        <pt x="519" y="604" on="1"/>
      </contour>
      <contour>
        <pt x="420" y="87" on="1"/>
        <pt x="420" y="604" on="1"/>
        <pt x="186" y="604" on="1"/>
        <pt x="186" y="87" on="1"/>
        <pt x="258" y="87" on="1"/>
        <pt x="346" y="174" on="1"/>
        <pt x="346" y="87" on="1"/>
      </contour>
    </TTGlyph>
    <TTGlyph name="R" xMin="87" yMin="0" xMax="531" yMax="691">
      <contour>
        <pt x="531" y="0" on="1"/>
        <pt x="432" y="0" on="1"/>
        <pt x="434" y="70" on="1"/>
        <pt x="236" y="269" on="1"/>
        <pt x="303" y="346" on="1"/>
        <pt x="432" y="346" on="1"/>
        <pt x="432" y="604" on="1"/>
        <pt x="198" y="604" on="1"/>
        <pt x="198" y="0" on="1"/>
        <pt x="99" y="0" on="1"/>
        <pt x="99" y="519" on="1"/>
        <pt x="186" y="604" on="1"/>
        <pt x="87" y="604" on="1"/>
        <pt x="87" y="691" on="1"/>
        <pt x="444" y="691" on="1"/>
        <pt x="531" y="604" on="1"/>
        <pt x="531" y="358" on="1"/>
        <pt x="444" y="271" on="1"/>
        <pt x="363" y="271" on="1"/>
        <pt x="363" y="258" on="1"/>
        <pt x="531" y="92" on="1"/>
      </contour>
    </TTGlyph>
    <TTGlyph name="S" xMin="68" yMin="0" xMax="507" yMax="691">
      <contour>
        <pt x="507" y="604" on="1"/>
        <pt x="167" y="604" on="1"/>
        <pt x="167" y="432" on="1"/>
        <pt x="396" y="432" on="1"/>
        <pt x="481" y="346" on="1"/>
        <pt x="481" y="87" on="1"/>
        <pt x="396" y="0" on="1"/>
        <pt x="154" y="0" on="1"/>
        <pt x="68" y="87" on="1"/>
        <pt x="68" y="156" on="1"/>
        <pt x="167" y="251" on="1"/>
        <pt x="167" y="87" on="1"/>
        <pt x="382" y="87" on="1"/>
        <pt x="382" y="346" on="1"/>
        <pt x="154" y="346" on="1"/>
        <pt x="68" y="432" on="1"/>
        <pt x="68" y="604" on="1"/>
        <pt x="154" y="691" on="1"/>
        <pt x="420" y="691" on="1"/>
      </contour>
    </TTGlyph>
    <TTGlyph name="T" xMin="0" yMin="0" xMax="408" yMax="691">
      <contour>
        <pt x="408" y="604" on="1"/>
        <pt x="253" y="604" on="1"/>
        <pt x="253" y="0" on="1"/>
        <pt x="154" y="0" on="1"/>
        <pt x="154" y="604" on="1"/>
        <pt x="0" y="604" on="1"/>
        <pt x="0" y="691" on="1"/>
        <pt x="408" y="691" on="1"/>
      </contour>
    </TTGlyph>
    <TTGlyph name="Thorn" xMin="87" yMin="0" xMax="519" yMax="691">
      <contour>
        <pt x="519" y="259" on="1"/>
        <pt x="432" y="173" on="1"/>
        <pt x="186" y="173" on="1"/>
        <pt x="186" y="0" on="1"/>
        <pt x="87" y="0" on="1"/>
        <pt x="87" y="691" on="1"/>
        <pt x="186" y="691" on="1"/>
        <pt x="186" y="604" on="1"/>
        <pt x="432" y="604" on="1"/>
        <pt x="519" y="519" on="1"/>
      </contour>
      <contour>
        <pt x="420" y="259" on="1"/>
        <pt x="420" y="519" on="1"/>
        <pt x="186" y="519" on="1"/>
        <pt x="186" y="186" on="1"/>
        <pt x="259" y="259" on="1"/>
      </contour>
    </TTGlyph>
    <TTGlyph name="U" xMin="92" yMin="0" xMax="524" yMax="691">
      <contour>
        <pt x="524" y="0" on="1"/>
        <pt x="426" y="0" on="1"/>
        <pt x="426" y="74" on="1"/>
        <pt x="352" y="0" on="1"/>
        <pt x="179" y="0" on="1"/>
        <pt x="92" y="87" on="1"/>
        <pt x="92" y="691" on="1"/>
        <pt x="191" y="691" on="1"/>
        <pt x="191" y="87" on="1"/>
        <pt x="426" y="87" on="1"/>
        <pt x="426" y="691" on="1"/>
        <pt x="524" y="691" on="1"/>
      </contour>
    </TTGlyph>
    <TTGlyph name="Uacute" xMin="92" yMin="0" xMax="524" yMax="901">
      <component glyphName="U" x="0" y="0" flags="0x204"/>
      <component glyphName="acute.case" x="234" y="0" flags="0x4"/>
    </TTGlyph>
    <TTGlyph name="Ucircumflex" xMin="92" yMin="0" xMax="524" yMax="936">
      <component glyphName="U" x="0" y="0" flags="0x204"/>
      <component glyphName="circumflex.case" x="154" y="0" flags="0x4"/>
    </TTGlyph>
    <TTGlyph name="Udieresis" xMin="92" yMin="0" xMax="524" yMax="889">
      <component glyphName="U" x="0" y="0" flags="0x204"/>
      <component glyphName="dieresis" x="164" y="173" flags="0x4"/>
    </TTGlyph>
    <TTGlyph name="Ugrave" xMin="92" yMin="0" xMax="524" yMax="901">
      <component glyphName="U" x="0" y="0" flags="0x204"/>
      <component glyphName="grave.case" x="123" y="0" flags="0x4"/>
    </TTGlyph>
    <TTGlyph name="V" xMin="68" yMin="0" xMax="500" yMax="691">
      <contour>
        <pt x="500" y="222" on="1"/>
        <pt x="337" y="0" on="1"/>
        <pt x="226" y="0" on="1"/>
        <pt x="68" y="222" on="1"/>
        <pt x="68" y="691" on="1"/>
        <pt x="169" y="691" on="1"/>
        <pt x="169" y="240" on="1"/>
        <pt x="271" y="84" on="1"/>
        <pt x="297" y="84" on="1"/>
        <pt x="401" y="240" on="1"/>
        <pt x="401" y="691" on="1"/>
        <pt x="500" y="691" on="1"/>
      </contour>
    </TTGlyph>
    <TTGlyph name="W" xMin="74" yMin="0" xMax="790" yMax="691">
      <contour>
        <pt x="790" y="149" on="1"/>
        <pt x="643" y="0" on="1"/>
        <pt x="546" y="0" on="1"/>
        <pt x="432" y="116" on="1"/>
        <pt x="319" y="0" on="1"/>
        <pt x="221" y="0" on="1"/>
        <pt x="74" y="149" on="1"/>
        <pt x="74" y="691" on="1"/>
        <pt x="173" y="691" on="1"/>
        <pt x="173" y="177" on="1"/>
        <pt x="263" y="84" on="1"/>
        <pt x="290" y="84" on="1"/>
        <pt x="382" y="177" on="1"/>
        <pt x="382" y="691" on="1"/>
        <pt x="481" y="691" on="1"/>
        <pt x="481" y="177" on="1"/>
        <pt x="573" y="84" on="1"/>
        <pt x="601" y="84" on="1"/>
        <pt x="691" y="174" on="1"/>
        <pt x="691" y="691" on="1"/>
        <pt x="790" y="691" on="1"/>
      </contour>
    </TTGlyph>
    <TTGlyph name="X" xMin="56" yMin="0" xMax="488" yMax="691">
      <contour>
        <pt x="488" y="0" on="1"/>
        <pt x="389" y="0" on="1"/>
        <pt x="389" y="167" on="1"/>
        <pt x="274" y="333" on="1"/>
        <pt x="262" y="333" on="1"/>
        <pt x="154" y="167" on="1"/>
        <pt x="154" y="0" on="1"/>
        <pt x="56" y="0" on="1"/>
        <pt x="56" y="191" on="1"/>
        <pt x="204" y="401" on="1"/>
        <pt x="56" y="601" on="1"/>
        <pt x="56" y="691" on="1"/>
        <pt x="154" y="691" on="1"/>
        <pt x="154" y="622" on="1"/>
        <pt x="270" y="458" on="1"/>
        <pt x="282" y="458" on="1"/>
        <pt x="389" y="622" on="1"/>
        <pt x="389" y="691" on="1"/>
        <pt x="488" y="691" on="1"/>
        <pt x="488" y="601" on="1"/>
        <pt x="341" y="401" on="1"/>
        <pt x="487" y="191" on="1"/>
      </contour>
    </TTGlyph>
    <TTGlyph name="Y" xMin="68" yMin="0" xMax="500" yMax="691">
      <contour>
        <pt x="500" y="346" on="1"/>
        <pt x="413" y="259" on="1"/>
        <pt x="333" y="259" on="1"/>
        <pt x="333" y="0" on="1"/>
        <pt x="234" y="0" on="1"/>
        <pt x="234" y="259" on="1"/>
        <pt x="154" y="259" on="1"/>
        <pt x="68" y="346" on="1"/>
        <pt x="68" y="691" on="1"/>
        <pt x="167" y="691" on="1"/>
        <pt x="167" y="346" on="1"/>
        <pt x="401" y="346" on="1"/>
        <pt x="401" y="691" on="1"/>
        <pt x="500" y="691" on="1"/>
      </contour>
    </TTGlyph>
    <TTGlyph name="Yacute" xMin="68" yMin="0" xMax="500" yMax="901">
      <component glyphName="Y" x="0" y="0" flags="0x204"/>
      <component glyphName="acute.case" x="210" y="0" flags="0x4"/>
    </TTGlyph>
    <TTGlyph name="Z" xMin="56" yMin="0" xMax="451" yMax="691">
      <contour>
        <pt x="451" y="0" on="1"/>
        <pt x="56" y="0" on="1"/>
        <pt x="56" y="216" on="1"/>
        <pt x="352" y="511" on="1"/>
        <pt x="352" y="604" on="1"/>
        <pt x="56" y="604" on="1"/>
        <pt x="56" y="691" on="1"/>
        <pt x="451" y="691" on="1"/>
        <pt x="451" y="477" on="1"/>
        <pt x="154" y="179" on="1"/>
        <pt x="154" y="87" on="1"/>
        <pt x="451" y="87" on="1"/>
      </contour>
    </TTGlyph>
    <TTGlyph name="a" xMin="49" yMin="0" xMax="420" yMax="519">
      <contour>
        <pt x="420" y="0" on="1"/>
        <pt x="321" y="0" on="1"/>
        <pt x="321" y="74" on="1"/>
        <pt x="247" y="0" on="1"/>
        <pt x="148" y="0" on="1"/>
        <pt x="62" y="87" on="1"/>
        <pt x="62" y="259" on="1"/>
        <pt x="148" y="346" on="1"/>
        <pt x="311" y="346" on="1"/>
        <pt x="229" y="260" on="1"/>
        <pt x="160" y="260" on="1"/>
        <pt x="160" y="87" on="1"/>
        <pt x="321" y="87" on="1"/>
        <pt x="321" y="432" on="1"/>
        <pt x="49" y="432" on="1"/>
        <pt x="123" y="519" on="1"/>
        <pt x="334" y="519" on="1"/>
        <pt x="420" y="432" on="1"/>
      </contour>
    </TTGlyph>
    <TTGlyph name="aacute" xMin="49" yMin="0" xMax="445" yMax="778">
      <component glyphName="a" x="0" y="0" flags="0x204"/>
      <component glyphName="acute" x="186" y="0" flags="0x4"/>
    </TTGlyph>
    <TTGlyph name="acircumflex" xMin="49" yMin="0" xMax="420" yMax="790">
      <component glyphName="a" x="0" y="0" flags="0x204"/>
      <component glyphName="circumflex" x="92" y="0" flags="0x4"/>
    </TTGlyph>
    <TTGlyph name="acute" xMin="-12" yMin="604" xMax="259" yMax="778">
      <contour>
        <pt x="259" y="778" on="1"/>
        <pt x="87" y="604" on="1"/>
        <pt x="-12" y="604" on="1"/>
        <pt x="136" y="778" on="1"/>
      </contour>
    </TTGlyph>
    <TTGlyph name="acute.case" xMin="0" yMin="778" xMax="247" yMax="901">
      <contour>
        <pt x="247" y="901" on="1"/>
        <pt x="99" y="778" on="1"/>
        <pt x="0" y="778" on="1"/>
        <pt x="123" y="901" on="1"/>
      </contour>
    </TTGlyph>
    <TTGlyph name="adieresis" xMin="49" yMin="0" xMax="420" yMax="716">
      <component glyphName="a" x="0" y="0" flags="0x204"/>
      <component glyphName="dieresis" x="104" y="0" flags="0x4"/>
    </TTGlyph>
    <TTGlyph name="ae" xMin="49" yMin="0" xMax="642" yMax="519">
      <contour>
        <pt x="642" y="259" on="1"/>
        <pt x="556" y="173" on="1"/>
        <pt x="408" y="173" on="1"/>
        <pt x="493" y="259" on="1"/>
        <pt x="543" y="259" on="1"/>
        <pt x="543" y="432" on="1"/>
        <pt x="396" y="432" on="1"/>
        <pt x="396" y="87" on="1"/>
        <pt x="623" y="87" on="1"/>
        <pt x="623" y="0" on="1"/>
        <pt x="388" y="0" on="1"/>
        <pt x="323" y="66" on="1"/>
        <pt x="259" y="0" on="1"/>
        <pt x="136" y="0" on="1"/>
        <pt x="49" y="87" on="1"/>
        <pt x="49" y="259" on="1"/>
        <pt x="136" y="346" on="1"/>
        <pt x="284" y="346" on="1"/>
        <pt x="202" y="259" on="1"/>
        <pt x="148" y="259" on="1"/>
        <pt x="148" y="87" on="1"/>
        <pt x="297" y="87" on="1"/>
        <pt x="297" y="432" on="1"/>
        <pt x="49" y="432" on="1"/>
        <pt x="123" y="519" on="1"/>
        <pt x="308" y="519" on="1"/>
        <pt x="364" y="463" on="1"/>
        <pt x="420" y="519" on="1"/>
        <pt x="554" y="519" on="1"/>
        <pt x="642" y="432" on="1"/>
      </contour>
    </TTGlyph>
    <TTGlyph name="agrave" xMin="49" yMin="0" xMax="420" yMax="778">
      <component glyphName="a" x="0" y="0" flags="0x204"/>
      <component glyphName="grave" x="124" y="0" flags="0x4"/>
    </TTGlyph>
    <TTGlyph name="ampersand" xMin="87" yMin="0" xMax="604" yMax="691">
      <contour>
        <pt x="604" y="346" on="1"/>
        <pt x="519" y="257" on="1"/>
        <pt x="421" y="257" on="1"/>
        <pt x="604" y="0" on="1"/>
        <pt x="481" y="0" on="1"/>
        <pt x="432" y="74" on="1"/>
        <pt x="358" y="0" on="1"/>
        <pt x="173" y="0" on="1"/>
        <pt x="87" y="87" on="1"/>
        <pt x="87" y="254" on="1"/>
        <pt x="176" y="346" on="1"/>
        <pt x="246" y="346" on="1"/>
        <pt x="136" y="481" on="1"/>
        <pt x="136" y="604" on="1"/>
        <pt x="222" y="691" on="1"/>
        <pt x="346" y="691" on="1"/>
        <pt x="432" y="604" on="1"/>
        <pt x="432" y="531" on="1"/>
        <pt x="333" y="432" on="1"/>
        <pt x="333" y="604" on="1"/>
        <pt x="234" y="604" on="1"/>
        <pt x="234" y="519" on="1"/>
        <pt x="358" y="346" on="1"/>
      </contour>
      <contour>
        <pt x="423" y="87" on="1"/>
        <pt x="309" y="257" on="1"/>
        <pt x="186" y="257" on="1"/>
        <pt x="186" y="87" on="1"/>
      </contour>
    </TTGlyph>
    <TTGlyph name="aring" xMin="49" yMin="0" xMax="420" yMax="799">
      <component glyphName="a" x="0" y="0" flags="0x204"/>
      <component glyphName="ring" x="100" y="1" flags="0x4"/>
    </TTGlyph>
    <TTGlyph name="asciicircum" xMin="30" yMin="497" xMax="538" yMax="867">
      <contour>
        <pt x="538" y="558" on="1"/>
        <pt x="477" y="497" on="1"/>
        <pt x="278" y="744" on="1"/>
        <pt x="90" y="497" on="1"/>
        <pt x="30" y="558" on="1"/>
        <pt x="278" y="867" on="1"/>
      </contour>
    </TTGlyph>
    <TTGlyph name="asciitilde" xMin="87" yMin="259" xMax="481" yMax="432">
      <contour>
        <pt x="481" y="346" on="1"/>
        <pt x="396" y="259" on="1"/>
        <pt x="308" y="259" on="1"/>
        <pt x="221" y="346" on="1"/>
        <pt x="173" y="346" on="1"/>
        <pt x="173" y="259" on="1"/>
        <pt x="87" y="259" on="1"/>
        <pt x="87" y="346" on="1"/>
        <pt x="173" y="432" on="1"/>
        <pt x="263" y="432" on="1"/>
        <pt x="349" y="346" on="1"/>
        <pt x="396" y="346" on="1"/>
        <pt x="396" y="432" on="1"/>
        <pt x="481" y="432" on="1"/>
      </contour>
    </TTGlyph>
    <TTGlyph name="asterisk" xMin="68" yMin="364" xMax="554" yMax="851">
      <contour>
        <pt x="513" y="724" on="1"/>
        <pt x="434" y="646" on="1"/>
        <pt x="434" y="751" on="1"/>
        <pt x="513" y="831" on="1"/>
      </contour>
      <contour>
        <pt x="271" y="724" on="1"/>
        <pt x="168" y="724" on="1"/>
        <pt x="89" y="803" on="1"/>
        <pt x="193" y="803" on="1"/>
      </contour>
      <contour>
        <pt x="554" y="607" on="1"/>
        <pt x="480" y="532" on="1"/>
        <pt x="311" y="532" on="1"/>
        <pt x="311" y="364" on="1"/>
        <pt x="237" y="438" on="1"/>
        <pt x="237" y="607" on="1"/>
        <pt x="68" y="607" on="1"/>
        <pt x="142" y="680" on="1"/>
        <pt x="311" y="680" on="1"/>
        <pt x="311" y="851" on="1"/>
        <pt x="386" y="777" on="1"/>
        <pt x="386" y="607" on="1"/>
      </contour>
      <contour>
        <pt x="546" y="407" on="1"/>
        <pt x="441" y="407" on="1"/>
        <pt x="362" y="486" on="1"/>
        <pt x="469" y="486" on="1"/>
      </contour>
      <contour>
        <pt x="188" y="568" on="1"/>
        <pt x="188" y="459" on="1"/>
        <pt x="109" y="386" on="1"/>
        <pt x="109" y="491" on="1"/>
      </contour>
      <contour>
        <pt x="370" y="607" on="1"/>
        <pt x="311" y="666" on="1"/>
        <pt x="311" y="669" on="1"/>
        <pt x="251" y="610" on="1"/>
        <pt x="311" y="549" on="1"/>
        <pt x="311" y="548" on="1"/>
        <pt x="369" y="607" on="1"/>
      </contour>
    </TTGlyph>
    <TTGlyph name="at" xMin="99" yMin="-259" xMax="827" yMax="778">
      <contour>
        <pt x="827" y="87" on="1"/>
        <pt x="741" y="0" on="1"/>
        <pt x="589" y="0" on="1"/>
        <pt x="522" y="67" on="1"/>
        <pt x="457" y="0" on="1"/>
        <pt x="343" y="0" on="1"/>
        <pt x="273" y="70" on="1"/>
        <pt x="301" y="259" on="1"/>
        <pt x="387" y="346" on="1"/>
        <pt x="520" y="346" on="1"/>
        <pt x="443" y="271" on="1"/>
        <pt x="400" y="271" on="1"/>
        <pt x="359" y="87" on="1"/>
        <pt x="478" y="87" on="1"/>
        <pt x="538" y="432" on="1"/>
        <pt x="303" y="432" on="1"/>
        <pt x="392" y="519" on="1"/>
        <pt x="566" y="519" on="1"/>
        <pt x="636" y="448" on="1"/>
        <pt x="570" y="87" on="1"/>
        <pt x="729" y="87" on="1"/>
        <pt x="729" y="691" on="1"/>
        <pt x="198" y="691" on="1"/>
        <pt x="198" y="-173" on="1"/>
        <pt x="813" y="-173" on="1"/>
        <pt x="726" y="-259" on="1"/>
        <pt x="198" y="-259" on="1"/>
        <pt x="99" y="-160" on="1"/>
        <pt x="99" y="691" on="1"/>
        <pt x="186" y="778" on="1"/>
        <pt x="741" y="778" on="1"/>
        <pt x="827" y="691" on="1"/>
      </contour>
    </TTGlyph>
    <TTGlyph name="atilde" xMin="49" yMin="0" xMax="420" yMax="784">
      <component glyphName="a" x="0" y="0" flags="0x204"/>
      <component glyphName="tilde" x="80" y="0" flags="0x4"/>
    </TTGlyph>
    <TTGlyph name="b" xMin="92" yMin="-12" xMax="451" yMax="802">
      <contour>
        <pt x="451" y="87" on="1"/>
        <pt x="364" y="0" on="1"/>
        <pt x="191" y="0" on="1"/>
        <pt x="191" y="86" on="1"/>
        <pt x="92" y="-12" on="1"/>
        <pt x="92" y="698" on="1"/>
        <pt x="191" y="802" on="1"/>
        <pt x="191" y="457" on="1"/>
        <pt x="253" y="519" on="1"/>
        <pt x="364" y="519" on="1"/>
        <pt x="451" y="432" on="1"/>
      </contour>
      <contour>
        <pt x="352" y="87" on="1"/>
        <pt x="352" y="432" on="1"/>
        <pt x="191" y="432" on="1"/>
        <pt x="191" y="87" on="1"/>
      </contour>
    </TTGlyph>
    <TTGlyph name="backslash" xMin="-24" yMin="-87" xMax="408" yMax="778">
      <contour>
        <pt x="63" y="778" on="1"/>
        <pt x="408" y="-87" on="1"/>
        <pt x="316" y="-87" on="1"/>
        <pt x="-24" y="778" on="1"/>
      </contour>
    </TTGlyph>
    <TTGlyph name="bar" xMin="87" yMin="-87" xMax="186" yMax="778">
      <contour>
        <pt x="186" y="-87" on="1"/>
        <pt x="87" y="-87" on="1"/>
        <pt x="87" y="778" on="1"/>
        <pt x="186" y="778" on="1"/>
      </contour>
    </TTGlyph>
    <TTGlyph name="braceleft" xMin="37" yMin="-87" xMax="284" yMax="778">
      <contour>
        <pt x="284" y="-87" on="1"/>
        <pt x="198" y="-87" on="1"/>
        <pt x="111" y="0" on="1"/>
        <pt x="111" y="302" on="1"/>
        <pt x="37" y="302" on="1"/>
        <pt x="37" y="389" on="1"/>
        <pt x="111" y="389" on="1"/>
        <pt x="111" y="691" on="1"/>
        <pt x="198" y="778" on="1"/>
        <pt x="284" y="778" on="1"/>
        <pt x="284" y="691" on="1"/>
        <pt x="210" y="691" on="1"/>
        <pt x="210" y="407" on="1"/>
        <pt x="148" y="344" on="1"/>
        <pt x="210" y="282" on="1"/>
        <pt x="210" y="0" on="1"/>
        <pt x="284" y="0" on="1"/>
      </contour>
    </TTGlyph>
    <TTGlyph name="braceright" xMin="62" yMin="-87" xMax="309" yMax="778">
      <contour>
        <pt x="62" y="0" on="1"/>
        <pt x="136" y="0" on="1"/>
        <pt x="136" y="282" on="1"/>
        <pt x="198" y="344" on="1"/>
        <pt x="136" y="407" on="1"/>
        <pt x="136" y="691" on="1"/>
        <pt x="62" y="691" on="1"/>
        <pt x="62" y="778" on="1"/>
        <pt x="148" y="778" on="1"/>
        <pt x="234" y="691" on="1"/>
        <pt x="234" y="389" on="1"/>
        <pt x="309" y="389" on="1"/>
        <pt x="309" y="302" on="1"/>
        <pt x="234" y="302" on="1"/>
        <pt x="234" y="0" on="1"/>
        <pt x="148" y="-87" on="1"/>
        <pt x="62" y="-87" on="1"/>
      </contour>
    </TTGlyph>
    <TTGlyph name="bracketleft" xMin="123" yMin="-87" xMax="297" yMax="778">
      <contour>
        <pt x="297" y="-87" on="1"/>
        <pt x="123" y="-87" on="1"/>
        <pt x="123" y="778" on="1"/>
        <pt x="297" y="778" on="1"/>
        <pt x="297" y="691" on="1"/>
        <pt x="222" y="691" on="1"/>
        <pt x="222" y="0" on="1"/>
        <pt x="297" y="0" on="1"/>
      </contour>
    </TTGlyph>
    <TTGlyph name="bracketright" xMin="62" yMin="-87" xMax="234" yMax="778">
      <contour>
        <pt x="62" y="0" on="1"/>
        <pt x="136" y="0" on="1"/>
        <pt x="136" y="691" on="1"/>
        <pt x="62" y="691" on="1"/>
        <pt x="62" y="778" on="1"/>
        <pt x="234" y="778" on="1"/>
        <pt x="234" y="-87" on="1"/>
        <pt x="62" y="-87" on="1"/>
      </contour>
    </TTGlyph>
    <TTGlyph name="brokenbar" xMin="87" yMin="-87" xMax="186" yMax="778">
      <contour>
        <pt x="186" y="476" on="1"/>
        <pt x="87" y="476" on="1"/>
        <pt x="87" y="778" on="1"/>
        <pt x="186" y="778" on="1"/>
      </contour>
      <contour>
        <pt x="186" y="-87" on="1"/>
        <pt x="87" y="-87" on="1"/>
        <pt x="87" y="216" on="1"/>
        <pt x="186" y="216" on="1"/>
      </contour>
    </TTGlyph>
    <TTGlyph name="bullet" xMin="37" yMin="247" xMax="234" yMax="444">
      <contour>
        <pt x="234" y="333" on="1"/>
        <pt x="148" y="247" on="1"/>
        <pt x="123" y="247" on="1"/>
        <pt x="37" y="333" on="1"/>
        <pt x="37" y="358" on="1"/>
        <pt x="123" y="444" on="1"/>
        <pt x="148" y="444" on="1"/>
        <pt x="234" y="358" on="1"/>
      </contour>
    </TTGlyph>
    <TTGlyph name="c" xMin="77" yMin="0" xMax="410" yMax="519">
      <contour>
        <pt x="410" y="432" on="1"/>
        <pt x="311" y="332" on="1"/>
        <pt x="311" y="432" on="1"/>
        <pt x="176" y="432" on="1"/>
        <pt x="176" y="87" on="1"/>
        <pt x="398" y="87" on="1"/>
        <pt x="398" y="0" on="1"/>
        <pt x="163" y="0" on="1"/>
        <pt x="77" y="87" on="1"/>
        <pt x="77" y="432" on="1"/>
        <pt x="163" y="519" on="1"/>
        <pt x="323" y="519" on="1"/>
      </contour>
    </TTGlyph>
    <TTGlyph name="caron" xMin="-19" yMin="580" xMax="327" yMax="766">
      <contour>
        <pt x="-19" y="766" on="1"/>
        <pt x="79" y="766" on="1"/>
        <pt x="159" y="673" on="1"/>
        <pt x="240" y="766" on="1"/>
        <pt x="327" y="766" on="1"/>
        <pt x="154" y="580" on="1"/>
      </contour>
    </TTGlyph>
    <TTGlyph name="caron.case" xMin="0" yMin="753" xMax="309" yMax="911">
      <contour>
        <pt x="0" y="911" on="1"/>
        <pt x="96" y="911" on="1"/>
        <pt x="159" y="842" on="1"/>
        <pt x="222" y="911" on="1"/>
        <pt x="309" y="911" on="1"/>
        <pt x="153" y="753" on="1"/>
      </contour>
    </TTGlyph>
    <TTGlyph name="ccedilla" xMin="77" yMin="-259" xMax="410" yMax="519">
      <contour>
        <pt x="410" y="432" on="1"/>
        <pt x="311" y="332" on="1"/>
        <pt x="311" y="432" on="1"/>
        <pt x="176" y="432" on="1"/>
        <pt x="176" y="87" on="1"/>
        <pt x="398" y="87" on="1"/>
        <pt x="398" y="0" on="1"/>
        <pt x="262" y="0" on="1"/>
        <pt x="262" y="-63" on="1"/>
        <pt x="323" y="-63" on="1"/>
        <pt x="398" y="-136" on="1"/>
        <pt x="398" y="-186" on="1"/>
        <pt x="321" y="-259" on="1"/>
        <pt x="176" y="-259" on="1"/>
        <pt x="101" y="-186" on="1"/>
        <pt x="299" y="-186" on="1"/>
        <pt x="299" y="-123" on="1"/>
        <pt x="188" y="-123" on="1"/>
        <pt x="188" y="-59" on="1"/>
        <pt x="249" y="0" on="1"/>
        <pt x="163" y="0" on="1"/>
        <pt x="77" y="87" on="1"/>
        <pt x="77" y="432" on="1"/>
        <pt x="163" y="519" on="1"/>
        <pt x="323" y="519" on="1"/>
      </contour>
    </TTGlyph>
    <TTGlyph name="cedilla" xMin="37" yMin="-259" xMax="333" yMax="12">
      <contour>
        <pt x="333" y="-186" on="1"/>
        <pt x="257" y="-259" on="1"/>
        <pt x="111" y="-259" on="1"/>
        <pt x="37" y="-186" on="1"/>
        <pt x="234" y="-186" on="1"/>
        <pt x="234" y="-123" on="1"/>
        <pt x="123" y="-123" on="1"/>
        <pt x="123" y="-59" on="1"/>
        <pt x="198" y="12" on="1"/>
        <pt x="198" y="-63" on="1"/>
        <pt x="259" y="-63" on="1"/>
        <pt x="333" y="-136" on="1"/>
      </contour>
    </TTGlyph>
    <TTGlyph name="cent" xMin="74" yMin="-99" xMax="469" yMax="618">
      <contour>
        <pt x="469" y="87" on="1"/>
        <pt x="384" y="0" on="1"/>
        <pt x="333" y="0" on="1"/>
        <pt x="333" y="-24" on="1"/>
        <pt x="259" y="-99" on="1"/>
        <pt x="259" y="0" on="1"/>
        <pt x="160" y="0" on="1"/>
        <pt x="74" y="87" on="1"/>
        <pt x="74" y="432" on="1"/>
        <pt x="160" y="519" on="1"/>
        <pt x="259" y="519" on="1"/>
        <pt x="259" y="543" on="1"/>
        <pt x="333" y="618" on="1"/>
        <pt x="333" y="519" on="1"/>
        <pt x="384" y="519" on="1"/>
        <pt x="469" y="432" on="1"/>
        <pt x="333" y="432" on="1"/>
        <pt x="333" y="87" on="1"/>
      </contour>
      <contour>
        <pt x="259" y="87" on="1"/>
        <pt x="259" y="432" on="1"/>
        <pt x="173" y="432" on="1"/>
        <pt x="173" y="87" on="1"/>
      </contour>
    </TTGlyph>
    <TTGlyph name="circumflex" xMin="-19" yMin="604" xMax="327" yMax="790">
      <contour>
        <pt x="327" y="604" on="1"/>
        <pt x="230" y="604" on="1"/>
        <pt x="149" y="698" on="1"/>
        <pt x="69" y="604" on="1"/>
        <pt x="-19" y="604" on="1"/>
        <pt x="154" y="790" on="1"/>
      </contour>
    </TTGlyph>
    <TTGlyph name="circumflex.case" xMin="0" yMin="778" xMax="309" yMax="936">
      <contour>
        <pt x="309" y="778" on="1"/>
        <pt x="213" y="778" on="1"/>
        <pt x="149" y="847" on="1"/>
        <pt x="87" y="778" on="1"/>
        <pt x="0" y="778" on="1"/>
        <pt x="156" y="936" on="1"/>
      </contour>
    </TTGlyph>
    <TTGlyph name="colon" xMin="88" yMin="0" xMax="199" yMax="444">
      <component glyphName="period" x="-11" y="0" flags="0x4"/>
      <component glyphName="period" x="-11" y="333" flags="0x4"/>
    </TTGlyph>
    <TTGlyph name="comma" xMin="87" yMin="-186" xMax="234" yMax="111">
      <contour>
        <pt x="234" y="-103" on="1"/>
        <pt x="148" y="-186" on="1"/>
        <pt x="148" y="0" on="1"/>
        <pt x="87" y="0" on="1"/>
        <pt x="87" y="111" on="1"/>
        <pt x="160" y="111" on="1"/>
        <pt x="234" y="37" on="1"/>
      </contour>
    </TTGlyph>
    <TTGlyph name="copyright" xMin="123" yMin="-173" xMax="913" yMax="778">
      <contour>
        <pt x="913" y="-87" on="1"/>
        <pt x="827" y="-173" on="1"/>
        <pt x="222" y="-173" on="1"/>
        <pt x="123" y="-87" on="1"/>
        <pt x="123" y="691" on="1"/>
        <pt x="210" y="778" on="1"/>
        <pt x="827" y="778" on="1"/>
        <pt x="913" y="691" on="1"/>
      </contour>
      <contour>
        <pt x="814" y="-87" on="1"/>
        <pt x="814" y="691" on="1"/>
        <pt x="222" y="691" on="1"/>
        <pt x="222" y="-87" on="1"/>
      </contour>
      <contour>
        <pt x="703" y="87" on="1"/>
        <pt x="618" y="0" on="1"/>
        <pt x="432" y="0" on="1"/>
        <pt x="346" y="87" on="1"/>
        <pt x="346" y="519" on="1"/>
        <pt x="432" y="604" on="1"/>
        <pt x="618" y="604" on="1"/>
        <pt x="703" y="519" on="1"/>
        <pt x="703" y="444" on="1"/>
        <pt x="604" y="346" on="1"/>
        <pt x="604" y="519" on="1"/>
        <pt x="444" y="519" on="1"/>
        <pt x="444" y="87" on="1"/>
        <pt x="604" y="87" on="1"/>
        <pt x="604" y="160" on="1"/>
        <pt x="703" y="258" on="1"/>
      </contour>
    </TTGlyph>
    <TTGlyph name="currency" xMin="77" yMin="101" xMax="566" yMax="591">
      <contour>
        <pt x="566" y="347" on="1"/>
        <pt x="476" y="256" on="1"/>
        <pt x="546" y="187" on="1"/>
        <pt x="484" y="126" on="1"/>
        <pt x="414" y="193" on="1"/>
        <pt x="322" y="101" on="1"/>
        <pt x="230" y="193" on="1"/>
        <pt x="160" y="126" on="1"/>
        <pt x="100" y="187" on="1"/>
        <pt x="169" y="254" on="1"/>
        <pt x="77" y="346" on="1"/>
        <pt x="168" y="437" on="1"/>
        <pt x="100" y="504" on="1"/>
        <pt x="160" y="566" on="1"/>
        <pt x="229" y="499" on="1"/>
        <pt x="322" y="591" on="1"/>
        <pt x="414" y="498" on="1"/>
        <pt x="484" y="566" on="1"/>
        <pt x="546" y="504" on="1"/>
        <pt x="477" y="437" on="1"/>
      </contour>
      <contour>
        <pt x="460" y="346" on="1"/>
        <pt x="322" y="486" on="1"/>
        <pt x="182" y="346" on="1"/>
        <pt x="322" y="208" on="1"/>
      </contour>
    </TTGlyph>
    <TTGlyph name="d" xMin="77" yMin="0" xMax="434" yMax="790">
      <contour>
        <pt x="434" y="0" on="1"/>
        <pt x="336" y="0" on="1"/>
        <pt x="336" y="74" on="1"/>
        <pt x="264" y="0" on="1"/>
        <pt x="163" y="0" on="1"/>
        <pt x="77" y="87" on="1"/>
        <pt x="77" y="432" on="1"/>
        <pt x="163" y="519" on="1"/>
        <pt x="336" y="519" on="1"/>
        <pt x="336" y="692" on="1"/>
        <pt x="434" y="790" on="1"/>
      </contour>
      <contour>
        <pt x="336" y="87" on="1"/>
        <pt x="336" y="507" on="1"/>
        <pt x="260" y="432" on="1"/>
        <pt x="176" y="432" on="1"/>
        <pt x="176" y="87" on="1"/>
      </contour>
    </TTGlyph>
    <TTGlyph name="degree" xMin="74" yMin="507" xMax="358" yMax="790">
      <contour>
        <pt x="358" y="592" on="1"/>
        <pt x="271" y="507" on="1"/>
        <pt x="160" y="507" on="1"/>
        <pt x="74" y="592" on="1"/>
        <pt x="74" y="703" on="1"/>
        <pt x="160" y="790" on="1"/>
        <pt x="271" y="790" on="1"/>
        <pt x="358" y="703" on="1"/>
      </contour>
      <contour>
        <pt x="271" y="592" on="1"/>
        <pt x="271" y="703" on="1"/>
        <pt x="160" y="703" on="1"/>
        <pt x="160" y="592" on="1"/>
      </contour>
    </TTGlyph>
    <TTGlyph name="designer" xMin="40" yMin="-70" xMax="969" yMax="452">
      <contour>
        <pt x="825" y="-47" on="1"/>
        <pt x="803" y="-70" on="1"/>
        <pt x="40" y="-70" on="1"/>
        <pt x="59" y="-51" on="1"/>
        <pt x="803" y="-51" on="1"/>
        <pt x="803" y="16" on="1"/>
        <pt x="787" y="0" on="1"/>
        <pt x="740" y="0" on="1"/>
        <pt x="717" y="22" on="1"/>
        <pt x="717" y="184" on="1"/>
        <pt x="740" y="184" on="1"/>
        <pt x="740" y="19" on="1"/>
        <pt x="803" y="19" on="1"/>
        <pt x="803" y="184" on="1"/>
        <pt x="825" y="184" on="1"/>
      </contour>
      <contour>
        <pt x="584" y="234" on="1"/>
        <pt x="562" y="211" on="1"/>
        <pt x="495" y="211" on="1"/>
        <pt x="472" y="234" on="1"/>
        <pt x="472" y="376" on="1"/>
        <pt x="495" y="398" on="1"/>
        <pt x="562" y="398" on="1"/>
        <pt x="584" y="376" on="1"/>
      </contour>
      <contour>
        <pt x="340" y="184" on="1"/>
        <pt x="286" y="140" on="1"/>
        <pt x="286" y="136" on="1"/>
        <pt x="301" y="136" on="1"/>
        <pt x="334" y="114" on="1"/>
        <pt x="334" y="0" on="1"/>
        <pt x="312" y="0" on="1"/>
        <pt x="312" y="120" on="1"/>
        <pt x="244" y="120" on="1"/>
        <pt x="244" y="0" on="1"/>
        <pt x="222" y="0" on="1"/>
        <pt x="222" y="428" on="1"/>
        <pt x="244" y="452" on="1"/>
        <pt x="244" y="337" on="1"/>
        <pt x="312" y="398" on="1"/>
        <pt x="340" y="398" on="1"/>
        <pt x="287" y="354" on="1"/>
        <pt x="287" y="351" on="1"/>
        <pt x="301" y="351" on="1"/>
        <pt x="334" y="328" on="1"/>
        <pt x="334" y="211" on="1"/>
        <pt x="312" y="211" on="1"/>
        <pt x="312" y="334" on="1"/>
        <pt x="244" y="334" on="1"/>
        <pt x="244" y="123" on="1"/>
        <pt x="312" y="184" on="1"/>
      </contour>
      <contour>
        <pt x="969" y="184" on="1"/>
        <pt x="914" y="140" on="1"/>
        <pt x="914" y="136" on="1"/>
        <pt x="930" y="136" on="1"/>
        <pt x="963" y="114" on="1"/>
        <pt x="963" y="-70" on="1"/>
        <pt x="940" y="-70" on="1"/>
        <pt x="940" y="120" on="1"/>
        <pt x="873" y="120" on="1"/>
        <pt x="873" y="0" on="1"/>
        <pt x="851" y="0" on="1"/>
        <pt x="851" y="428" on="1"/>
        <pt x="873" y="452" on="1"/>
        <pt x="873" y="123" on="1"/>
        <pt x="938" y="184" on="1"/>
      </contour>
      <contour>
        <pt x="459" y="0" on="1"/>
        <pt x="437" y="0" on="1"/>
        <pt x="437" y="165" on="1"/>
        <pt x="376" y="165" on="1"/>
        <pt x="376" y="0" on="1"/>
        <pt x="353" y="0" on="1"/>
        <pt x="353" y="266" on="1"/>
        <pt x="376" y="294" on="1"/>
        <pt x="376" y="173" on="1"/>
        <pt x="387" y="184" on="1"/>
        <pt x="437" y="184" on="1"/>
        <pt x="459" y="162" on="1"/>
      </contour>
      <contour>
        <pt x="562" y="165" on="1"/>
        <pt x="474" y="165" on="1"/>
        <pt x="493" y="184" on="1"/>
        <pt x="562" y="184" on="1"/>
        <pt x="584" y="162" on="1"/>
        <pt x="584" y="0" on="1"/>
        <pt x="562" y="0" on="1"/>
        <pt x="562" y="16" on="1"/>
        <pt x="543" y="0" on="1"/>
        <pt x="500" y="0" on="1"/>
        <pt x="477" y="22" on="1"/>
        <pt x="477" y="117" on="1"/>
        <pt x="500" y="139" on="1"/>
        <pt x="562" y="139" on="1"/>
        <pt x="543" y="120" on="1"/>
        <pt x="500" y="120" on="1"/>
        <pt x="500" y="19" on="1"/>
        <pt x="562" y="19" on="1"/>
      </contour>
      <contour>
        <pt x="562" y="230" on="1"/>
        <pt x="562" y="379" on="1"/>
        <pt x="495" y="379" on="1"/>
        <pt x="495" y="230" on="1"/>
      </contour>
      <contour>
        <pt x="159" y="398" on="1"/>
        <pt x="121" y="211" on="1"/>
        <pt x="78" y="211" on="1"/>
        <pt x="41" y="398" on="1"/>
        <pt x="67" y="398" on="1"/>
        <pt x="97" y="230" on="1"/>
        <pt x="103" y="230" on="1"/>
        <pt x="134" y="398" on="1"/>
      </contour>
      <contour>
        <pt x="464" y="211" on="1"/>
        <pt x="416" y="211" on="1"/>
        <pt x="393" y="234" on="1"/>
        <pt x="393" y="379" on="1"/>
        <pt x="332" y="379" on="1"/>
        <pt x="357" y="398" on="1"/>
        <pt x="393" y="398" on="1"/>
        <pt x="393" y="427" on="1"/>
        <pt x="416" y="449" on="1"/>
        <pt x="416" y="398" on="1"/>
        <pt x="464" y="398" on="1"/>
        <pt x="464" y="379" on="1"/>
        <pt x="416" y="379" on="1"/>
        <pt x="416" y="230" on="1"/>
        <pt x="464" y="230" on="1"/>
      </contour>
      <contour>
        <pt x="700" y="325" on="1"/>
        <pt x="678" y="325" on="1"/>
        <pt x="678" y="379" on="1"/>
        <pt x="633" y="379" on="1"/>
        <pt x="633" y="211" on="1"/>
        <pt x="611" y="211" on="1"/>
        <pt x="611" y="398" on="1"/>
        <pt x="633" y="398" on="1"/>
        <pt x="633" y="382" on="1"/>
        <pt x="649" y="398" on="1"/>
        <pt x="678" y="398" on="1"/>
        <pt x="700" y="376" on="1"/>
      </contour>
      <contour>
        <pt x="700" y="109" on="1"/>
        <pt x="678" y="109" on="1"/>
        <pt x="678" y="165" on="1"/>
        <pt x="633" y="165" on="1"/>
        <pt x="633" y="0" on="1"/>
        <pt x="611" y="0" on="1"/>
        <pt x="611" y="184" on="1"/>
        <pt x="633" y="184" on="1"/>
        <pt x="633" y="168" on="1"/>
        <pt x="649" y="184" on="1"/>
        <pt x="678" y="184" on="1"/>
        <pt x="700" y="162" on="1"/>
      </contour>
      <contour>
        <pt x="197" y="211" on="1"/>
        <pt x="174" y="211" on="1"/>
        <pt x="174" y="382" on="1"/>
        <pt x="197" y="405" on="1"/>
      </contour>
      <contour>
        <pt x="197" y="419" on="1"/>
        <pt x="174" y="419" on="1"/>
        <pt x="174" y="445" on="1"/>
        <pt x="197" y="445" on="1"/>
      </contour>
    </TTGlyph>
    <TTGlyph name="dieresis" xMin="12" yMin="604" xMax="284" yMax="716">
      <contour>
        <pt x="284" y="604" on="1"/>
        <pt x="191" y="604" on="1"/>
        <pt x="191" y="716" on="1"/>
        <pt x="284" y="716" on="1"/>
      </contour>
      <contour>
        <pt x="104" y="604" on="1"/>
        <pt x="12" y="604" on="1"/>
        <pt x="12" y="716" on="1"/>
        <pt x="104" y="716" on="1"/>
      </contour>
    </TTGlyph>
    <TTGlyph name="divide" xMin="43" yMin="62" xMax="451" yMax="543">
      <component glyphName="period" x="92" y="62" flags="0x4"/>
      <component glyphName="period" x="92" y="432" flags="0x4"/>
      <component glyphName="minus" x="0" y="0" flags="0x4"/>
    </TTGlyph>
    <TTGlyph name="dollar" xMin="62" yMin="-99" xMax="543" yMax="790">
      <contour>
        <pt x="543" y="604" on="1"/>
        <pt x="346" y="604" on="1"/>
        <pt x="346" y="432" on="1"/>
        <pt x="444" y="432" on="1"/>
        <pt x="531" y="346" on="1"/>
        <pt x="531" y="87" on="1"/>
        <pt x="444" y="0" on="1"/>
        <pt x="346" y="0" on="1"/>
        <pt x="346" y="-24" on="1"/>
        <pt x="271" y="-99" on="1"/>
        <pt x="271" y="0" on="1"/>
        <pt x="147" y="0" on="1"/>
        <pt x="62" y="87" on="1"/>
        <pt x="271" y="87" on="1"/>
        <pt x="271" y="346" on="1"/>
        <pt x="173" y="346" on="1"/>
        <pt x="87" y="432" on="1"/>
        <pt x="87" y="604" on="1"/>
        <pt x="173" y="691" on="1"/>
        <pt x="271" y="691" on="1"/>
        <pt x="271" y="716" on="1"/>
        <pt x="346" y="790" on="1"/>
        <pt x="346" y="691" on="1"/>
        <pt x="457" y="691" on="1"/>
      </contour>
      <contour>
        <pt x="271" y="432" on="1"/>
        <pt x="271" y="604" on="1"/>
        <pt x="186" y="604" on="1"/>
        <pt x="186" y="432" on="1"/>
      </contour>
      <contour>
        <pt x="432" y="87" on="1"/>
        <pt x="432" y="346" on="1"/>
        <pt x="346" y="346" on="1"/>
        <pt x="346" y="87" on="1"/>
      </contour>
    </TTGlyph>
    <TTGlyph name="dotlessi" xMin="87" yMin="0" xMax="186" yMax="543">
      <contour>
        <pt x="186" y="0" on="1"/>
        <pt x="87" y="0" on="1"/>
        <pt x="87" y="443" on="1"/>
        <pt x="186" y="543" on="1"/>
      </contour>
    </TTGlyph>
    <TTGlyph name="e" xMin="77" yMin="0" xMax="434" yMax="519">
      <contour>
        <pt x="434" y="0" on="1"/>
        <pt x="163" y="0" on="1"/>
        <pt x="77" y="87" on="1"/>
        <pt x="77" y="432" on="1"/>
        <pt x="163" y="519" on="1"/>
        <pt x="348" y="519" on="1"/>
        <pt x="434" y="432" on="1"/>
        <pt x="434" y="259" on="1"/>
        <pt x="348" y="173" on="1"/>
        <pt x="188" y="173" on="1"/>
        <pt x="276" y="259" on="1"/>
        <pt x="336" y="259" on="1"/>
        <pt x="336" y="432" on="1"/>
        <pt x="176" y="432" on="1"/>
        <pt x="176" y="87" on="1"/>
        <pt x="434" y="87" on="1"/>
      </contour>
    </TTGlyph>
    <TTGlyph name="eacute" xMin="77" yMin="0" xMax="445" yMax="778">
      <component glyphName="e" x="0" y="0" flags="0x4"/>
      <component glyphName="acute" x="186" y="0" flags="0x4"/>
    </TTGlyph>
    <TTGlyph name="ecircumflex" xMin="77" yMin="0" xMax="438" yMax="790">
      <component glyphName="e" x="0" y="0" flags="0x4"/>
      <component glyphName="circumflex" x="111" y="0" flags="0x4"/>
    </TTGlyph>
    <TTGlyph name="edieresis" xMin="77" yMin="0" xMax="434" yMax="716">
      <component glyphName="e" x="0" y="0" flags="0x4"/>
      <component glyphName="dieresis" x="112" y="0" flags="0x4"/>
    </TTGlyph>
    <TTGlyph name="egrave" xMin="74" yMin="0" xMax="434" yMax="778">
      <component glyphName="e" x="0" y="0" flags="0x4"/>
      <component glyphName="grave" x="148" y="0" flags="0x4"/>
    </TTGlyph>
    <TTGlyph name="eight" xMin="62" yMin="0" xMax="432" yMax="691">
      <contour>
        <pt x="432" y="87" on="1"/>
        <pt x="346" y="0" on="1"/>
        <pt x="148" y="0" on="1"/>
        <pt x="62" y="87" on="1"/>
        <pt x="62" y="342" on="1"/>
        <pt x="129" y="408" on="1"/>
        <pt x="78" y="469" on="1"/>
        <pt x="78" y="613" on="1"/>
        <pt x="152" y="691" on="1"/>
        <pt x="342" y="691" on="1"/>
        <pt x="416" y="618" on="1"/>
        <pt x="416" y="469" on="1"/>
        <pt x="366" y="407" on="1"/>
        <pt x="432" y="340" on="1"/>
      </contour>
      <contour>
        <pt x="318" y="420" on="1"/>
        <pt x="318" y="607" on="1"/>
        <pt x="177" y="603" on="1"/>
        <pt x="177" y="420" on="1"/>
      </contour>
      <contour>
        <pt x="333" y="87" on="1"/>
        <pt x="333" y="346" on="1"/>
        <pt x="160" y="346" on="1"/>
        <pt x="160" y="87" on="1"/>
      </contour>
    </TTGlyph>
    <TTGlyph name="emdash" xMin="37" yMin="259" xMax="408" yMax="346">
      <contour>
        <pt x="408" y="259" on="1"/>
        <pt x="37" y="259" on="1"/>
        <pt x="37" y="346" on="1"/>
        <pt x="408" y="346" on="1"/>
      </contour>
    </TTGlyph>
    <TTGlyph name="endash" xMin="87" yMin="259" xMax="346" yMax="346">
      <contour>
        <pt x="346" y="259" on="1"/>
        <pt x="87" y="259" on="1"/>
        <pt x="87" y="346" on="1"/>
        <pt x="346" y="346" on="1"/>
      </contour>
    </TTGlyph>
    <TTGlyph name="equal" xMin="43" yMin="173" xMax="451" yMax="432">
      <contour>
        <pt x="451" y="347" on="1"/>
        <pt x="43" y="347" on="1"/>
        <pt x="43" y="432" on="1"/>
        <pt x="451" y="432" on="1"/>
      </contour>
      <contour>
        <pt x="451" y="173" on="1"/>
        <pt x="43" y="173" on="1"/>
        <pt x="43" y="258" on="1"/>
        <pt x="451" y="258" on="1"/>
      </contour>
    </TTGlyph>
    <TTGlyph name="eth" xMin="74" yMin="0" xMax="432" yMax="801">
      <contour>
        <pt x="432" y="87" on="1"/>
        <pt x="346" y="0" on="1"/>
        <pt x="160" y="0" on="1"/>
        <pt x="74" y="87" on="1"/>
        <pt x="74" y="346" on="1"/>
        <pt x="160" y="432" on="1"/>
        <pt x="333" y="432" on="1"/>
        <pt x="333" y="521" on="1"/>
        <pt x="249" y="607" on="1"/>
        <pt x="148" y="502" on="1"/>
        <pt x="148" y="609" on="1"/>
        <pt x="198" y="654" on="1"/>
        <pt x="122" y="731" on="1"/>
        <pt x="186" y="793" on="1"/>
        <pt x="277" y="703" on="1"/>
        <pt x="373" y="801" on="1"/>
        <pt x="373" y="699" on="1"/>
        <pt x="327" y="656" on="1"/>
        <pt x="432" y="552" on="1"/>
      </contour>
      <contour>
        <pt x="333" y="420" on="1"/>
        <pt x="259" y="346" on="1"/>
        <pt x="173" y="346" on="1"/>
        <pt x="173" y="87" on="1"/>
        <pt x="333" y="87" on="1"/>
      </contour>
    </TTGlyph>
    <TTGlyph name="exclam" xMin="99" yMin="0" xMax="210" yMax="691">
      <contour>
        <pt x="210" y="270" on="1"/>
        <pt x="111" y="173" on="1"/>
        <pt x="111" y="691" on="1"/>
        <pt x="210" y="691" on="1"/>
      </contour>
      <contour>
        <pt x="210" y="0" on="1"/>
        <pt x="99" y="0" on="1"/>
        <pt x="99" y="111" on="1"/>
        <pt x="210" y="111" on="1"/>
      </contour>
    </TTGlyph>
    <TTGlyph name="exclamdown" xMin="99" yMin="-173" xMax="210" yMax="519">
      <contour>
        <pt x="99" y="248" on="1"/>
        <pt x="198" y="346" on="1"/>
        <pt x="198" y="-173" on="1"/>
        <pt x="99" y="-173" on="1"/>
      </contour>
      <contour>
        <pt x="99" y="519" on="1"/>
        <pt x="210" y="519" on="1"/>
        <pt x="210" y="408" on="1"/>
        <pt x="99" y="408" on="1"/>
      </contour>
    </TTGlyph>
    <TTGlyph name="f" xMin="92" yMin="0" xMax="401" yMax="778">
      <contour>
        <pt x="401" y="691" on="1"/>
        <pt x="191" y="691" on="1"/>
        <pt x="191" y="457" on="1"/>
        <pt x="253" y="519" on="1"/>
        <pt x="362" y="519" on="1"/>
        <pt x="276" y="432" on="1"/>
        <pt x="191" y="432" on="1"/>
        <pt x="191" y="0" on="1"/>
        <pt x="92" y="0" on="1"/>
        <pt x="92" y="691" on="1"/>
        <pt x="179" y="778" on="1"/>
        <pt x="313" y="778" on="1"/>
      </contour>
    </TTGlyph>
    <TTGlyph name="five" xMin="74" yMin="0" xMax="420" yMax="691">
      <contour>
        <pt x="420" y="87" on="1"/>
        <pt x="333" y="0" on="1"/>
        <pt x="160" y="0" on="1"/>
        <pt x="74" y="87" on="1"/>
        <pt x="74" y="173" on="1"/>
        <pt x="173" y="173" on="1"/>
        <pt x="173" y="87" on="1"/>
        <pt x="321" y="87" on="1"/>
        <pt x="321" y="346" on="1"/>
        <pt x="74" y="346" on="1"/>
        <pt x="74" y="691" on="1"/>
        <pt x="420" y="691" on="1"/>
        <pt x="420" y="604" on="1"/>
        <pt x="160" y="604" on="1"/>
        <pt x="160" y="432" on="1"/>
        <pt x="333" y="432" on="1"/>
        <pt x="420" y="346" on="1"/>
      </contour>
    </TTGlyph>
    <TTGlyph name="foundryicon" xMin="59" yMin="-275" xMax="1691" yMax="714">
      <contour>
        <pt x="1192" y="643" on="1"/>
        <pt x="1181" y="620" on="0"/>
        <pt x="1156" y="557" on="0"/>
        <pt x="1121" y="497" on="0"/>
        <pt x="1072" y="451" on="0"/>
        <pt x="1037" y="445" on="1"/>
        <pt x="1044" y="431" on="0"/>
        <pt x="1057" y="406" on="0"/>
        <pt x="1063" y="395" on="1"/>
        <pt x="1063" y="394" on="0"/>
        <pt x="1064" y="393" on="1"/>
        <pt x="1091" y="379" on="0"/>
        <pt x="1122" y="324" on="0"/>
        <pt x="1122" y="279" on="1"/>
        <pt x="1122" y="253" on="0"/>
        <pt x="1111" y="202" on="0"/>
        <pt x="1090" y="157" on="0"/>
        <pt x="1059" y="124" on="0"/>
        <pt x="1038" y="118" on="1"/>
        <pt x="1043" y="97" on="0"/>
        <pt x="1057" y="59" on="0"/>
        <pt x="1071" y="50" on="1"/>
        <pt x="1086" y="56" on="0"/>
        <pt x="1109" y="78" on="0"/>
        <pt x="1127" y="105" on="0"/>
        <pt x="1140" y="133" on="0"/>
        <pt x="1145" y="145" on="1"/>
        <pt x="1145" y="198" on="1"/>
        <pt x="1147" y="252" on="0"/>
        <pt x="1175" y="349" on="0"/>
        <pt x="1210" y="386" on="1"/>
        <pt x="1247" y="386" on="0"/>
        <pt x="1281" y="373" on="1"/>
        <pt x="1282" y="377" on="0"/>
        <pt x="1287" y="398" on="0"/>
        <pt x="1293" y="422" on="0"/>
        <pt x="1300" y="442" on="0"/>
        <pt x="1303" y="444" on="1"/>
        <pt x="1311" y="446" on="0"/>
        <pt x="1337" y="442" on="0"/>
        <pt x="1363" y="432" on="0"/>
        <pt x="1385" y="419" on="0"/>
        <pt x="1391" y="413" on="1"/>
        <pt x="1385" y="371" on="0"/>
        <pt x="1377" y="271" on="0"/>
        <pt x="1377" y="219" on="1"/>
        <pt x="1377" y="171" on="0"/>
        <pt x="1385" y="82" on="0"/>
        <pt x="1396" y="47" on="1"/>
        <pt x="1403" y="45" on="0"/>
        <pt x="1418" y="58" on="0"/>
        <pt x="1431" y="77" on="0"/>
        <pt x="1443" y="97" on="0"/>
        <pt x="1446" y="103" on="1"/>
        <pt x="1443" y="117" on="1"/>
        <pt x="1434" y="161" on="0"/>
        <pt x="1425" y="256" on="0"/>
        <pt x="1425" y="305" on="1"/>
        <pt x="1425" y="359" on="0"/>
        <pt x="1435" y="466" on="0"/>
        <pt x="1456" y="566" on="0"/>
        <pt x="1487" y="657" on="0"/>
        <pt x="1507" y="693" on="1"/>
        <pt x="1551" y="686" on="0"/>
        <pt x="1608" y="658" on="0"/>
        <pt x="1642" y="612" on="0"/>
        <pt x="1656" y="546" on="0"/>
        <pt x="1656" y="501" on="1"/>
        <pt x="1656" y="458" on="0"/>
        <pt x="1641" y="367" on="0"/>
        <pt x="1612" y="287" on="0"/>
        <pt x="1570" y="227" on="0"/>
        <pt x="1542" y="214" on="1"/>
        <pt x="1542" y="108" on="0"/>
        <pt x="1584" y="47" on="1"/>
        <pt x="1614" y="70" on="0"/>
        <pt x="1661" y="152" on="0"/>
        <pt x="1677" y="216" on="1"/>
        <pt x="1682" y="218" on="0"/>
        <pt x="1688" y="218" on="0"/>
        <pt x="1691" y="218" on="1"/>
        <pt x="1691" y="196" on="1"/>
        <pt x="1691" y="167" on="0"/>
        <pt x="1680" y="101" on="0"/>
        <pt x="1653" y="45" on="0"/>
        <pt x="1605" y="8" on="0"/>
        <pt x="1568" y="8" on="1"/>
        <pt x="1531" y="8" on="0"/>
        <pt x="1477" y="40" on="0"/>
        <pt x="1460" y="69" on="1"/>
        <pt x="1454" y="46" on="0"/>
        <pt x="1420" y="8" on="0"/>
        <pt x="1395" y="8" on="1"/>
        <pt x="1366" y="8" on="0"/>
        <pt x="1324" y="49" on="0"/>
        <pt x="1315" y="70" on="1"/>
        <pt x="1312" y="59" on="0"/>
        <pt x="1298" y="41" on="0"/>
        <pt x="1279" y="28" on="0"/>
        <pt x="1258" y="19" on="0"/>
        <pt x="1248" y="18" on="1"/>
        <pt x="1209" y="18" on="0"/>
        <pt x="1166" y="53" on="0"/>
        <pt x="1158" y="80" on="1"/>
        <pt x="1145" y="60" on="0"/>
        <pt x="1101" y="21" on="0"/>
        <pt x="1068" y="18" on="1"/>
        <pt x="1032" y="18" on="0"/>
        <pt x="981" y="45" on="0"/>
        <pt x="949" y="92" on="0"/>
        <pt x="934" y="153" on="0"/>
        <pt x="934" y="186" on="1"/>
        <pt x="934" y="206" on="1"/>
        <pt x="935" y="233" on="0"/>
        <pt x="941" y="291" on="0"/>
        <pt x="952" y="345" on="0"/>
        <pt x="967" y="391" on="0"/>
        <pt x="976" y="406" on="1"/>
        <pt x="981" y="406" on="0"/>
        <pt x="989" y="407" on="0"/>
        <pt x="994" y="407" on="1"/>
        <pt x="999" y="407" on="0"/>
        <pt x="1006" y="406" on="0"/>
        <pt x="1011" y="406" on="1"/>
        <pt x="1006" y="415" on="0"/>
        <pt x="998" y="435" on="0"/>
        <pt x="995" y="446" on="1"/>
        <pt x="954" y="454" on="0"/>
        <pt x="883" y="516" on="0"/>
        <pt x="853" y="552" on="1"/>
        <pt x="846" y="558" on="0"/>
        <pt x="817" y="565" on="0"/>
        <pt x="784" y="572" on="0"/>
        <pt x="753" y="581" on="0"/>
        <pt x="743" y="590" on="1"/>
        <pt x="739" y="593" on="0"/>
        <pt x="741" y="600" on="0"/>
        <pt x="745" y="600" on="1"/>
        <pt x="746" y="599" on="0"/>
        <pt x="784" y="595" on="0"/>
        <pt x="832" y="590" on="0"/>
        <pt x="877" y="587" on="0"/>
        <pt x="884" y="587" on="1"/>
        <pt x="920" y="594" on="0"/>
        <pt x="989" y="606" on="0"/>
        <pt x="1046" y="618" on="0"/>
        <pt x="1084" y="629" on="0"/>
        <pt x="1090" y="635" on="1"/>
        <pt x="1096" y="657" on="0"/>
        <pt x="1129" y="681" on="0"/>
        <pt x="1148" y="681" on="1"/>
        <pt x="1165" y="681" on="0"/>
        <pt x="1175" y="675" on="1"/>
        <pt x="1192" y="681" on="1"/>
        <pt x="1194" y="680" on="0"/>
        <pt x="1194" y="680" on="1"/>
        <pt x="1193" y="680" on="1"/>
        <pt x="1189" y="661" on="1"/>
        <pt x="1206" y="661" on="1"/>
        <pt x="1206" y="660" on="0"/>
        <pt x="1206" y="660" on="1"/>
      </contour>
      <contour>
        <pt x="612" y="397" on="1"/>
        <pt x="617" y="350" on="0"/>
        <pt x="623" y="257" on="0"/>
        <pt x="623" y="211" on="1"/>
        <pt x="623" y="115" on="0"/>
        <pt x="597" y="-61" on="0"/>
        <pt x="542" y="-195" on="0"/>
        <pt x="455" y="-275" on="0"/>
        <pt x="395" y="-275" on="1"/>
        <pt x="369" y="-275" on="0"/>
        <pt x="335" y="-261" on="0"/>
        <pt x="315" y="-232" on="0"/>
        <pt x="307" y="-191" on="0"/>
        <pt x="307" y="-164" on="1"/>
        <pt x="307" y="-140" on="0"/>
        <pt x="316" y="-95" on="0"/>
        <pt x="322" y="-75" on="1"/>
        <pt x="346" y="-75" on="0"/>
        <pt x="401" y="-92" on="0"/>
        <pt x="421" y="-112" on="1"/>
        <pt x="419" y="-130" on="0"/>
        <pt x="414" y="-172" on="0"/>
        <pt x="414" y="-193" on="1"/>
        <pt x="414" y="-216" on="0"/>
        <pt x="419" y="-239" on="1"/>
        <pt x="450" y="-219" on="0"/>
        <pt x="485" y="-165" on="0"/>
        <pt x="504" y="-97" on="0"/>
        <pt x="514" y="-14" on="0"/>
        <pt x="520" y="36" on="1"/>
        <pt x="516" y="30" on="0"/>
        <pt x="500" y="18" on="0"/>
        <pt x="490" y="18" on="1"/>
        <pt x="454" y="18" on="0"/>
        <pt x="404" y="58" on="0"/>
        <pt x="388" y="90" on="1"/>
        <pt x="383" y="75" on="0"/>
        <pt x="365" y="44" on="0"/>
        <pt x="337" y="18" on="0"/>
        <pt x="299" y="2" on="0"/>
        <pt x="274" y="2" on="1"/>
        <pt x="217" y="2" on="0"/>
        <pt x="136" y="52" on="0"/>
        <pt x="85" y="133" on="0"/>
        <pt x="60" y="237" on="0"/>
        <pt x="59" y="290" on="1"/>
        <pt x="59" y="351" on="0"/>
        <pt x="74" y="472" on="0"/>
        <pt x="109" y="582" on="0"/>
        <pt x="166" y="678" on="0"/>
        <pt x="207" y="714" on="1"/>
        <pt x="229" y="709" on="0"/>
        <pt x="282" y="693" on="0"/>
        <pt x="328" y="659" on="0"/>
        <pt x="358" y="601" on="0"/>
        <pt x="358" y="554" on="1"/>
        <pt x="358" y="518" on="0"/>
        <pt x="323" y="458" on="0"/>
        <pt x="295" y="434" on="1"/>
        <pt x="286" y="424" on="0"/>
        <pt x="283" y="432" on="0"/>
        <pt x="285" y="437" on="1"/>
        <pt x="287" y="444" on="0"/>
        <pt x="287" y="457" on="0"/>
        <pt x="287" y="465" on="1"/>
        <pt x="287" y="484" on="0"/>
        <pt x="281" y="525" on="0"/>
        <pt x="272" y="561" on="0"/>
        <pt x="261" y="589" on="0"/>
        <pt x="256" y="595" on="1"/>
        <pt x="242" y="583" on="0"/>
        <pt x="218" y="524" on="0"/>
        <pt x="200" y="443" on="0"/>
        <pt x="190" y="347" on="0"/>
        <pt x="190" y="298" on="1"/>
        <pt x="190" y="257" on="0"/>
        <pt x="199" y="177" on="0"/>
        <pt x="218" y="108" on="0"/>
        <pt x="248" y="54" on="0"/>
        <pt x="270" y="38" on="1"/>
        <pt x="289" y="44" on="0"/>
        <pt x="321" y="70" on="0"/>
        <pt x="346" y="102" on="0"/>
        <pt x="363" y="134" on="0"/>
        <pt x="369" y="146" on="1"/>
        <pt x="358" y="181" on="0"/>
        <pt x="351" y="259" on="0"/>
        <pt x="351" y="299" on="1"/>
        <pt x="351" y="337" on="0"/>
        <pt x="361" y="389" on="0"/>
        <pt x="370" y="406" on="1"/>
        <pt x="377" y="404" on="0"/>
        <pt x="402" y="399" on="0"/>
        <pt x="429" y="391" on="0"/>
        <pt x="455" y="378" on="0"/>
        <pt x="465" y="369" on="1"/>
        <pt x="462" y="318" on="0"/>
        <pt x="462" y="270" on="1"/>
        <pt x="462" y="216" on="0"/>
        <pt x="473" y="114" on="0"/>
        <pt x="488" y="66" on="1"/>
        <pt x="499" y="69" on="0"/>
        <pt x="507" y="88" on="0"/>
        <pt x="509" y="93" on="1"/>
        <pt x="515" y="121" on="0"/>
        <pt x="520" y="180" on="0"/>
        <pt x="520" y="209" on="1"/>
        <pt x="520" y="243" on="0"/>
        <pt x="514" y="311" on="0"/>
        <pt x="507" y="372" on="0"/>
        <pt x="498" y="424" on="0"/>
        <pt x="495" y="444" on="1"/>
        <pt x="508" y="445" on="0"/>
        <pt x="541" y="439" on="0"/>
        <pt x="573" y="426" on="0"/>
        <pt x="602" y="407" on="0"/>
      </contour>
      <contour>
        <pt x="628" y="415" on="1"/>
        <pt x="668" y="413" on="0"/>
        <pt x="692" y="407" on="1"/>
        <pt x="718" y="402" on="0"/>
        <pt x="735" y="383" on="1"/>
        <pt x="746" y="363" on="0"/>
        <pt x="764" y="305" on="0"/>
        <pt x="767" y="265" on="1"/>
        <pt x="784" y="297" on="0"/>
        <pt x="807" y="345" on="0"/>
        <pt x="814" y="365" on="1"/>
        <pt x="814" y="379" on="0"/>
        <pt x="824" y="417" on="0"/>
        <pt x="829" y="429" on="1"/>
        <pt x="861" y="426" on="0"/>
        <pt x="913" y="407" on="0"/>
        <pt x="924" y="388" on="1"/>
        <pt x="919" y="366" on="0"/>
        <pt x="915" y="315" on="0"/>
        <pt x="915" y="289" on="1"/>
        <pt x="915" y="272" on="0"/>
        <pt x="918" y="240" on="0"/>
        <pt x="920" y="226" on="1"/>
        <pt x="900" y="221" on="0"/>
        <pt x="888" y="221" on="1"/>
        <pt x="835" y="221" on="0"/>
        <pt x="824" y="286" on="1"/>
        <pt x="816" y="266" on="0"/>
        <pt x="784" y="223" on="0"/>
        <pt x="777" y="195" on="1"/>
        <pt x="777" y="169" on="0"/>
        <pt x="774" y="99" on="0"/>
        <pt x="767" y="77" on="1"/>
        <pt x="759" y="50" on="0"/>
        <pt x="725" y="12" on="0"/>
        <pt x="697" y="12" on="1"/>
        <pt x="694" y="12" on="0"/>
        <pt x="687" y="12" on="0"/>
        <pt x="683" y="13" on="1"/>
        <pt x="680" y="58" on="0"/>
        <pt x="675" y="165" on="0"/>
        <pt x="663" y="274" on="0"/>
        <pt x="644" y="376" on="0"/>
      </contour>
      <contour>
        <pt x="1246" y="55" on="1"/>
        <pt x="1258" y="66" on="0"/>
        <pt x="1290" y="104" on="0"/>
        <pt x="1292" y="125" on="1"/>
        <pt x="1283" y="163" on="0"/>
        <pt x="1276" y="245" on="0"/>
        <pt x="1276" y="278" on="1"/>
        <pt x="1276" y="293" on="0"/>
        <pt x="1277" y="318" on="0"/>
        <pt x="1278" y="327" on="1"/>
        <pt x="1270" y="317" on="0"/>
        <pt x="1254" y="277" on="0"/>
        <pt x="1242" y="225" on="0"/>
        <pt x="1235" y="166" on="0"/>
        <pt x="1235" y="137" on="1"/>
        <pt x="1235" y="93" on="0"/>
      </contour>
      <contour>
        <pt x="1540" y="261" on="1"/>
        <pt x="1553" y="279" on="0"/>
        <pt x="1572" y="334" on="0"/>
        <pt x="1585" y="397" on="0"/>
        <pt x="1591" y="463" on="0"/>
        <pt x="1591" y="494" on="1"/>
        <pt x="1591" y="536" on="0"/>
        <pt x="1585" y="566" on="1"/>
        <pt x="1577" y="536" on="0"/>
        <pt x="1563" y="462" on="0"/>
        <pt x="1551" y="382" on="0"/>
        <pt x="1542" y="300" on="0"/>
      </contour>
      <contour>
        <pt x="1063" y="337" on="1"/>
        <pt x="1049" y="295" on="0"/>
        <pt x="1036" y="202" on="0"/>
        <pt x="1036" y="154" on="1"/>
        <pt x="1047" y="155" on="0"/>
        <pt x="1064" y="177" on="0"/>
        <pt x="1075" y="208" on="0"/>
        <pt x="1080" y="247" on="0"/>
        <pt x="1080" y="265" on="1"/>
        <pt x="1080" y="287" on="0"/>
        <pt x="1068" y="326" on="0"/>
      </contour>
      <contour>
        <pt x="1049" y="399" on="1"/>
        <pt x="1035" y="418" on="0"/>
        <pt x="1024" y="444" on="1"/>
        <pt x="1009" y="444" on="1"/>
        <pt x="1021" y="405" on="1"/>
        <pt x="1029" y="403" on="0"/>
        <pt x="1042" y="401" on="0"/>
      </contour>
    </TTGlyph>
    <TTGlyph name="four" xMin="56" yMin="0" xMax="408" yMax="691">
      <contour>
        <pt x="408" y="0" on="1"/>
        <pt x="309" y="0" on="1"/>
        <pt x="309" y="173" on="1"/>
        <pt x="56" y="173" on="1"/>
        <pt x="56" y="464" on="1"/>
        <pt x="281" y="691" on="1"/>
        <pt x="398" y="691" on="1"/>
        <pt x="148" y="443" on="1"/>
        <pt x="148" y="259" on="1"/>
        <pt x="309" y="259" on="1"/>
        <pt x="309" y="469" on="1"/>
        <pt x="408" y="568" on="1"/>
      </contour>
    </TTGlyph>
    <TTGlyph name="foursuperior" xMin="74" yMin="346" xMax="352" yMax="778">
      <contour>
        <pt x="352" y="778" on="1"/>
        <pt x="167" y="592" on="1"/>
        <pt x="167" y="519" on="1"/>
        <pt x="240" y="519" on="1"/>
        <pt x="240" y="543" on="1"/>
        <pt x="337" y="640" on="1"/>
        <pt x="337" y="346" on="1"/>
        <pt x="236" y="346" on="1"/>
        <pt x="236" y="432" on="1"/>
        <pt x="74" y="432" on="1"/>
        <pt x="74" y="624" on="1"/>
        <pt x="227" y="778" on="1"/>
      </contour>
    </TTGlyph>
    <TTGlyph name="fraction" xMin="0" yMin="0" xMax="382" yMax="778">
      <contour>
        <pt x="382" y="778" on="1"/>
        <pt x="79" y="0" on="1"/>
        <pt x="0" y="0" on="1"/>
        <pt x="308" y="778" on="1"/>
      </contour>
    </TTGlyph>
    <TTGlyph name="g" xMin="52" yMin="-259" xMax="459" yMax="519">
      <contour>
        <pt x="459" y="519" on="1"/>
        <pt x="373" y="432" on="1"/>
        <pt x="163" y="432" on="1"/>
        <pt x="163" y="87" on="1"/>
        <pt x="323" y="87" on="1"/>
        <pt x="323" y="346" on="1"/>
        <pt x="422" y="346" on="1"/>
        <pt x="422" y="-173" on="1"/>
        <pt x="336" y="-259" on="1"/>
        <pt x="52" y="-259" on="1"/>
        <pt x="137" y="-173" on="1"/>
        <pt x="323" y="-173" on="1"/>
        <pt x="323" y="76" on="1"/>
        <pt x="224" y="0" on="1"/>
        <pt x="151" y="0" on="1"/>
        <pt x="64" y="87" on="1"/>
        <pt x="64" y="432" on="1"/>
        <pt x="151" y="519" on="1"/>
      </contour>
    </TTGlyph>
    <TTGlyph name="germandbls" xMin="92" yMin="0" xMax="451" yMax="778">
      <contour>
        <pt x="451" y="87" on="1"/>
        <pt x="364" y="0" on="1"/>
        <pt x="203" y="0" on="1"/>
        <pt x="290" y="87" on="1"/>
        <pt x="352" y="87" on="1"/>
        <pt x="352" y="432" on="1"/>
        <pt x="227" y="432" on="1"/>
        <pt x="327" y="531" on="1"/>
        <pt x="327" y="691" on="1"/>
        <pt x="191" y="691" on="1"/>
        <pt x="191" y="0" on="1"/>
        <pt x="92" y="0" on="1"/>
        <pt x="92" y="691" on="1"/>
        <pt x="179" y="778" on="1"/>
        <pt x="340" y="778" on="1"/>
        <pt x="426" y="691" on="1"/>
        <pt x="426" y="556" on="1"/>
        <pt x="377" y="507" on="1"/>
        <pt x="451" y="432" on="1"/>
      </contour>
    </TTGlyph>
    <TTGlyph name="grave" xMin="-74" yMin="604" xMax="198" yMax="778">
      <contour>
        <pt x="198" y="604" on="1"/>
        <pt x="99" y="604" on="1"/>
        <pt x="-74" y="778" on="1"/>
        <pt x="49" y="778" on="1"/>
      </contour>
    </TTGlyph>
    <TTGlyph name="grave.case" xMin="0" yMin="778" xMax="247" yMax="901">
      <contour>
        <pt x="247" y="778" on="1"/>
        <pt x="148" y="778" on="1"/>
        <pt x="0" y="901" on="1"/>
        <pt x="123" y="901" on="1"/>
      </contour>
    </TTGlyph>
    <TTGlyph name="greater" xMin="62" yMin="64" xMax="432" yMax="571">
      <contour>
        <pt x="309" y="312" on="1"/>
        <pt x="62" y="511" on="1"/>
        <pt x="122" y="571" on="1"/>
        <pt x="432" y="312" on="1"/>
        <pt x="122" y="64" on="1"/>
        <pt x="62" y="124" on="1"/>
      </contour>
    </TTGlyph>
    <TTGlyph name="guillemotleft" xMin="49" yMin="92" xMax="568" yMax="510">
      <contour>
        <pt x="568" y="157" on="1"/>
        <pt x="508" y="92" on="1"/>
        <pt x="300" y="301" on="1"/>
        <pt x="511" y="510" on="1"/>
        <pt x="568" y="449" on="1"/>
        <pt x="421" y="302" on="1"/>
      </contour>
      <contour>
        <pt x="319" y="452" on="1"/>
        <pt x="168" y="302" on="1"/>
        <pt x="318" y="156" on="1"/>
        <pt x="257" y="92" on="1"/>
        <pt x="49" y="301" on="1"/>
        <pt x="259" y="510" on="1"/>
      </contour>
    </TTGlyph>
    <TTGlyph name="guillemotright" xMin="49" yMin="92" xMax="568" yMax="510">
      <contour>
        <pt x="197" y="302" on="1"/>
        <pt x="49" y="449" on="1"/>
        <pt x="107" y="510" on="1"/>
        <pt x="318" y="301" on="1"/>
        <pt x="110" y="92" on="1"/>
        <pt x="49" y="157" on="1"/>
      </contour>
      <contour>
        <pt x="358" y="510" on="1"/>
        <pt x="568" y="301" on="1"/>
        <pt x="360" y="92" on="1"/>
        <pt x="300" y="156" on="1"/>
        <pt x="449" y="302" on="1"/>
        <pt x="299" y="452" on="1"/>
      </contour>
    </TTGlyph>
    <TTGlyph name="guilsinglleft" xMin="49" yMin="92" xMax="319" yMax="510">
      <contour>
        <pt x="319" y="452" on="1"/>
        <pt x="168" y="302" on="1"/>
        <pt x="318" y="156" on="1"/>
        <pt x="257" y="92" on="1"/>
        <pt x="49" y="301" on="1"/>
        <pt x="259" y="510" on="1"/>
      </contour>
    </TTGlyph>
    <TTGlyph name="guilsinglright" xMin="49" yMin="92" xMax="318" yMax="510">
      <contour>
        <pt x="197" y="302" on="1"/>
        <pt x="49" y="449" on="1"/>
        <pt x="107" y="510" on="1"/>
        <pt x="318" y="301" on="1"/>
        <pt x="110" y="92" on="1"/>
        <pt x="49" y="157" on="1"/>
      </contour>
    </TTGlyph>
    <TTGlyph name="h" xMin="92" yMin="0" xMax="451" yMax="800">
      <contour>
        <pt x="451" y="0" on="1"/>
        <pt x="352" y="0" on="1"/>
        <pt x="352" y="432" on="1"/>
        <pt x="191" y="432" on="1"/>
        <pt x="191" y="0" on="1"/>
        <pt x="92" y="0" on="1"/>
        <pt x="92" y="702" on="1"/>
        <pt x="191" y="800" on="1"/>
        <pt x="191" y="444" on="1"/>
        <pt x="264" y="519" on="1"/>
        <pt x="364" y="519" on="1"/>
        <pt x="451" y="432" on="1"/>
      </contour>
    </TTGlyph>
    <TTGlyph name="hyphen" xMin="19" yMin="259" xMax="314" yMax="346">
      <contour>
        <pt x="314" y="346" on="1"/>
        <pt x="229" y="259" on="1"/>
        <pt x="19" y="259" on="1"/>
        <pt x="104" y="346" on="1"/>
      </contour>
    </TTGlyph>
    <TTGlyph name="i" xMin="87" yMin="0" xMax="186" yMax="703">
      <contour>
        <pt x="186" y="604" on="1"/>
        <pt x="87" y="604" on="1"/>
        <pt x="87" y="703" on="1"/>
        <pt x="186" y="703" on="1"/>
      </contour>
      <contour>
        <pt x="186" y="0" on="1"/>
        <pt x="87" y="0" on="1"/>
        <pt x="87" y="443" on="1"/>
        <pt x="186" y="543" on="1"/>
      </contour>
    </TTGlyph>
    <TTGlyph name="iacute" xMin="81" yMin="0" xMax="352" yMax="778">
      <component glyphName="dotlessi" x="20" y="0" flags="0x204"/>
      <component glyphName="acute" x="93" y="0" flags="0x4"/>
    </TTGlyph>
    <TTGlyph name="icircumflex" xMin="1" yMin="0" xMax="347" yMax="790">
      <component glyphName="dotlessi" x="20" y="0" flags="0x204"/>
      <component glyphName="circumflex" x="20" y="0" flags="0x4"/>
    </TTGlyph>
    <TTGlyph name="idieresis" xMin="25" yMin="0" xMax="297" yMax="716">
      <component glyphName="dotlessi" x="20" y="0" flags="0x204"/>
      <component glyphName="dieresis" x="13" y="0" flags="0x4"/>
    </TTGlyph>
    <TTGlyph name="igrave" xMin="-55" yMin="0" xMax="217" yMax="778">
      <component glyphName="dotlessi" x="0" y="0" flags="0x204"/>
      <component glyphName="grave" x="19" y="0" flags="0x4"/>
    </TTGlyph>
    <TTGlyph name="j" xMin="-43" yMin="-259" xMax="179" yMax="703">
      <contour>
        <pt x="179" y="604" on="1"/>
        <pt x="80" y="604" on="1"/>
        <pt x="80" y="703" on="1"/>
        <pt x="179" y="703" on="1"/>
      </contour>
      <contour>
        <pt x="179" y="-173" on="1"/>
        <pt x="92" y="-259" on="1"/>
        <pt x="-43" y="-259" on="1"/>
        <pt x="46" y="-173" on="1"/>
        <pt x="80" y="-173" on="1"/>
        <pt x="80" y="442" on="1"/>
        <pt x="179" y="543" on="1"/>
      </contour>
    </TTGlyph>
    <TTGlyph name="k" xMin="92" yMin="0" xMax="438" yMax="802">
      <contour>
        <pt x="191" y="299" on="1"/>
        <pt x="438" y="543" on="1"/>
        <pt x="438" y="437" on="1"/>
        <pt x="351" y="351" on="1"/>
        <pt x="438" y="263" on="1"/>
        <pt x="438" y="0" on="1"/>
        <pt x="340" y="0" on="1"/>
        <pt x="340" y="284" on="1"/>
        <pt x="191" y="284" on="1"/>
        <pt x="191" y="0" on="1"/>
        <pt x="92" y="0" on="1"/>
        <pt x="92" y="703" on="1"/>
        <pt x="191" y="802" on="1"/>
      </contour>
    </TTGlyph>
    <TTGlyph name="l" xMin="87" yMin="0" xMax="271" yMax="802">
      <contour>
        <pt x="271" y="0" on="1"/>
        <pt x="173" y="0" on="1"/>
        <pt x="87" y="87" on="1"/>
        <pt x="87" y="704" on="1"/>
        <pt x="186" y="802" on="1"/>
        <pt x="186" y="87" on="1"/>
        <pt x="271" y="87" on="1"/>
      </contour>
    </TTGlyph>
    <TTGlyph name="less" xMin="62" yMin="64" xMax="432" yMax="571">
      <contour>
        <pt x="432" y="124" on="1"/>
        <pt x="371" y="64" on="1"/>
        <pt x="62" y="312" on="1"/>
        <pt x="371" y="571" on="1"/>
        <pt x="432" y="511" on="1"/>
        <pt x="186" y="312" on="1"/>
      </contour>
    </TTGlyph>
    <TTGlyph name="logicalnot" xMin="43" yMin="87" xMax="408" yMax="346">
      <contour>
        <pt x="408" y="87" on="1"/>
        <pt x="321" y="87" on="1"/>
        <pt x="321" y="259" on="1"/>
        <pt x="43" y="259" on="1"/>
        <pt x="43" y="346" on="1"/>
        <pt x="408" y="346" on="1"/>
      </contour>
    </TTGlyph>
    <TTGlyph name="m" xMin="87" yMin="0" xMax="679" yMax="519">
      <contour>
        <pt x="679" y="0" on="1"/>
        <pt x="580" y="0" on="1"/>
        <pt x="580" y="432" on="1"/>
        <pt x="432" y="432" on="1"/>
        <pt x="432" y="0" on="1"/>
        <pt x="333" y="0" on="1"/>
        <pt x="333" y="432" on="1"/>
        <pt x="186" y="432" on="1"/>
        <pt x="186" y="0" on="1"/>
        <pt x="87" y="0" on="1"/>
        <pt x="87" y="519" on="1"/>
        <pt x="186" y="519" on="1"/>
        <pt x="186" y="444" on="1"/>
        <pt x="259" y="519" on="1"/>
        <pt x="358" y="519" on="1"/>
        <pt x="419" y="456" on="1"/>
        <pt x="481" y="519" on="1"/>
        <pt x="592" y="519" on="1"/>
        <pt x="679" y="432" on="1"/>
      </contour>
    </TTGlyph>
    <TTGlyph name="macron" xMin="37" yMin="604" xMax="259" yMax="691">
      <contour>
        <pt x="259" y="604" on="1"/>
        <pt x="37" y="604" on="1"/>
        <pt x="37" y="691" on="1"/>
        <pt x="259" y="691" on="1"/>
      </contour>
    </TTGlyph>
    <TTGlyph name="minus" xMin="43" yMin="259" xMax="451" yMax="346">
      <contour>
        <pt x="451" y="259" on="1"/>
        <pt x="43" y="259" on="1"/>
        <pt x="43" y="346" on="1"/>
        <pt x="451" y="346" on="1"/>
      </contour>
    </TTGlyph>
    <TTGlyph name="mu" xMin="87" yMin="-259" xMax="444" yMax="519">
      <contour>
        <pt x="444" y="0" on="1"/>
        <pt x="346" y="0" on="1"/>
        <pt x="346" y="74" on="1"/>
        <pt x="273" y="0" on="1"/>
        <pt x="186" y="0" on="1"/>
        <pt x="186" y="-259" on="1"/>
        <pt x="87" y="-259" on="1"/>
        <pt x="87" y="519" on="1"/>
        <pt x="186" y="519" on="1"/>
        <pt x="186" y="87" on="1"/>
        <pt x="346" y="87" on="1"/>
        <pt x="346" y="519" on="1"/>
        <pt x="444" y="519" on="1"/>
      </contour>
    </TTGlyph>
    <TTGlyph name="multiply" xMin="73" yMin="129" xMax="422" yMax="477">
      <contour>
        <pt x="422" y="189" on="1"/>
        <pt x="360" y="129" on="1"/>
        <pt x="247" y="242" on="1"/>
        <pt x="133" y="129" on="1"/>
        <pt x="73" y="189" on="1"/>
        <pt x="187" y="302" on="1"/>
        <pt x="73" y="416" on="1"/>
        <pt x="133" y="477" on="1"/>
        <pt x="247" y="363" on="1"/>
        <pt x="360" y="477" on="1"/>
        <pt x="422" y="416" on="1"/>
        <pt x="309" y="302" on="1"/>
      </contour>
    </TTGlyph>
    <TTGlyph name="n" xMin="87" yMin="0" xMax="444" yMax="519">
      <contour>
        <pt x="444" y="0" on="1"/>
        <pt x="346" y="0" on="1"/>
        <pt x="346" y="432" on="1"/>
        <pt x="186" y="432" on="1"/>
        <pt x="186" y="0" on="1"/>
        <pt x="87" y="0" on="1"/>
        <pt x="87" y="519" on="1"/>
        <pt x="186" y="519" on="1"/>
        <pt x="186" y="444" on="1"/>
        <pt x="259" y="519" on="1"/>
        <pt x="358" y="519" on="1"/>
        <pt x="444" y="432" on="1"/>
      </contour>
    </TTGlyph>
    <TTGlyph name="nine" xMin="62" yMin="0" xMax="420" yMax="691">
      <contour>
        <pt x="62" y="604" on="1"/>
        <pt x="148" y="691" on="1"/>
        <pt x="333" y="691" on="1"/>
        <pt x="420" y="604" on="1"/>
        <pt x="420" y="87" on="1"/>
        <pt x="333" y="0" on="1"/>
        <pt x="74" y="0" on="1"/>
        <pt x="74" y="87" on="1"/>
        <pt x="321" y="87" on="1"/>
        <pt x="321" y="259" on="1"/>
        <pt x="148" y="259" on="1"/>
        <pt x="62" y="346" on="1"/>
      </contour>
      <contour>
        <pt x="160" y="604" on="1"/>
        <pt x="160" y="346" on="1"/>
        <pt x="321" y="346" on="1"/>
        <pt x="321" y="604" on="1"/>
      </contour>
    </TTGlyph>
    <TTGlyph name="ntilde" xMin="87" yMin="0" xMax="444" yMax="784">
      <component glyphName="n" x="0" y="0" flags="0x204"/>
      <component glyphName="tilde" x="92" y="0" flags="0x4"/>
    </TTGlyph>
    <TTGlyph name="numbersign" xMin="24" yMin="74" xMax="631" yMax="618">
      <contour>
        <pt x="631" y="507" on="1"/>
        <pt x="542" y="420" on="1"/>
        <pt x="504" y="420" on="1"/>
        <pt x="471" y="271" on="1"/>
        <pt x="582" y="271" on="1"/>
        <pt x="493" y="186" on="1"/>
        <pt x="452" y="186" on="1"/>
        <pt x="441" y="133" on="1"/>
        <pt x="357" y="74" on="1"/>
        <pt x="378" y="186" on="1"/>
        <pt x="210" y="186" on="1"/>
        <pt x="199" y="133" on="1"/>
        <pt x="114" y="74" on="1"/>
        <pt x="136" y="186" on="1"/>
        <pt x="24" y="186" on="1"/>
        <pt x="113" y="271" on="1"/>
        <pt x="151" y="271" on="1"/>
        <pt x="190" y="420" on="1"/>
        <pt x="73" y="420" on="1"/>
        <pt x="162" y="507" on="1"/>
        <pt x="204" y="507" on="1"/>
        <pt x="213" y="560" on="1"/>
        <pt x="300" y="618" on="1"/>
        <pt x="279" y="507" on="1"/>
        <pt x="446" y="507" on="1"/>
        <pt x="454" y="560" on="1"/>
        <pt x="541" y="618" on="1"/>
        <pt x="520" y="507" on="1"/>
      </contour>
      <contour>
        <pt x="431" y="420" on="1"/>
        <pt x="258" y="420" on="1"/>
        <pt x="224" y="271" on="1"/>
        <pt x="398" y="271" on="1"/>
      </contour>
    </TTGlyph>
    <TTGlyph name="o" xMin="77" yMin="0" xMax="434" yMax="519">
      <contour>
        <pt x="434" y="87" on="1"/>
        <pt x="348" y="0" on="1"/>
        <pt x="163" y="0" on="1"/>
        <pt x="77" y="87" on="1"/>
        <pt x="77" y="432" on="1"/>
        <pt x="163" y="519" on="1"/>
        <pt x="348" y="519" on="1"/>
        <pt x="434" y="432" on="1"/>
      </contour>
      <contour>
        <pt x="336" y="87" on="1"/>
        <pt x="336" y="432" on="1"/>
        <pt x="176" y="432" on="1"/>
        <pt x="176" y="87" on="1"/>
      </contour>
    </TTGlyph>
    <TTGlyph name="oacute" xMin="77" yMin="0" xMax="469" yMax="778">
      <component glyphName="o" x="0" y="0" flags="0x204"/>
      <component glyphName="acute" x="210" y="0" flags="0x4"/>
    </TTGlyph>
    <TTGlyph name="ocircumflex" xMin="77" yMin="0" xMax="434" yMax="790">
      <component glyphName="o" x="0" y="0" flags="0x204"/>
      <component glyphName="circumflex" x="99" y="0" flags="0x4"/>
    </TTGlyph>
    <TTGlyph name="odieresis" xMin="77" yMin="0" xMax="434" yMax="716">
      <component glyphName="o" x="0" y="0" flags="0x204"/>
      <component glyphName="dieresis" x="104" y="0" flags="0x4"/>
    </TTGlyph>
    <TTGlyph name="oe" xMin="77" yMin="0" xMax="669" yMax="519">
      <contour>
        <pt x="669" y="259" on="1"/>
        <pt x="582" y="173" on="1"/>
        <pt x="434" y="173" on="1"/>
        <pt x="521" y="259" on="1"/>
        <pt x="570" y="259" on="1"/>
        <pt x="570" y="432" on="1"/>
        <pt x="422" y="432" on="1"/>
        <pt x="422" y="87" on="1"/>
        <pt x="657" y="87" on="1"/>
        <pt x="657" y="0" on="1"/>
        <pt x="410" y="0" on="1"/>
        <pt x="354" y="56" on="1"/>
        <pt x="298" y="0" on="1"/>
        <pt x="164" y="0" on="1"/>
        <pt x="77" y="87" on="1"/>
        <pt x="77" y="432" on="1"/>
        <pt x="164" y="519" on="1"/>
        <pt x="336" y="519" on="1"/>
        <pt x="379" y="476" on="1"/>
        <pt x="423" y="519" on="1"/>
        <pt x="582" y="519" on="1"/>
        <pt x="669" y="432" on="1"/>
      </contour>
      <contour>
        <pt x="323" y="87" on="1"/>
        <pt x="323" y="432" on="1"/>
        <pt x="176" y="432" on="1"/>
        <pt x="176" y="87" on="1"/>
      </contour>
    </TTGlyph>
    <TTGlyph name="ograve" xMin="39" yMin="0" xMax="425" yMax="778">
      <component glyphName="o" x="-9" y="0" flags="0x4"/>
      <component glyphName="grave" x="113" y="0" flags="0x4"/>
    </TTGlyph>
    <TTGlyph name="one" xMin="56" yMin="0" xMax="426" yMax="691">
      <contour>
        <pt x="426" y="0" on="1"/>
        <pt x="80" y="0" on="1"/>
        <pt x="80" y="87" on="1"/>
        <pt x="241" y="87" on="1"/>
        <pt x="241" y="587" on="1"/>
        <pt x="229" y="587" on="1"/>
        <pt x="118" y="476" on="1"/>
        <pt x="56" y="538" on="1"/>
        <pt x="209" y="691" on="1"/>
        <pt x="340" y="691" on="1"/>
        <pt x="340" y="87" on="1"/>
        <pt x="426" y="87" on="1"/>
      </contour>
    </TTGlyph>
    <TTGlyph name="onehalf" xMin="-24" yMin="0" xMax="765" yMax="778">
      <component glyphName="twosuperior" x="444" y="-345" flags="0x4"/>
      <component glyphName="onesuperior" x="-36" y="0" flags="0x4"/>
      <component glyphName="fraction" x="216" y="0" flags="0x4"/>
    </TTGlyph>
    <TTGlyph name="onequarter" xMin="-24" yMin="0" xMax="778" yMax="778">
      <component glyphName="foursuperior" x="426" y="-345" flags="0x4"/>
      <component glyphName="onesuperior" x="-36" y="0" flags="0x4"/>
      <component glyphName="fraction" x="216" y="0" flags="0x4"/>
    </TTGlyph>
    <TTGlyph name="onesuperior" xMin="12" yMin="346" xMax="309" yMax="778">
      <contour>
        <pt x="309" y="346" on="1"/>
        <pt x="208" y="346" on="1"/>
        <pt x="208" y="679" on="1"/>
        <pt x="196" y="679" on="1"/>
        <pt x="122" y="604" on="1"/>
        <pt x="12" y="604" on="1"/>
        <pt x="186" y="778" on="1"/>
        <pt x="309" y="778" on="1"/>
      </contour>
    </TTGlyph>
    <TTGlyph name="ordfeminine" xMin="49" yMin="87" xMax="352" yMax="691">
      <contour>
        <pt x="352" y="259" on="1"/>
        <pt x="253" y="259" on="1"/>
        <pt x="253" y="334" on="1"/>
        <pt x="177" y="259" on="1"/>
        <pt x="148" y="259" on="1"/>
        <pt x="62" y="346" on="1"/>
        <pt x="62" y="432" on="1"/>
        <pt x="148" y="519" on="1"/>
        <pt x="240" y="519" on="1"/>
        <pt x="167" y="446" on="1"/>
        <pt x="167" y="346" on="1"/>
        <pt x="253" y="346" on="1"/>
        <pt x="253" y="604" on="1"/>
        <pt x="49" y="604" on="1"/>
        <pt x="136" y="691" on="1"/>
        <pt x="266" y="691" on="1"/>
        <pt x="352" y="604" on="1"/>
      </contour>
      <contour>
        <pt x="352" y="87" on="1"/>
        <pt x="56" y="87" on="1"/>
        <pt x="56" y="173" on="1"/>
        <pt x="352" y="173" on="1"/>
      </contour>
    </TTGlyph>
    <TTGlyph name="ordmasculine" xMin="49" yMin="87" xMax="346" yMax="691">
      <contour>
        <pt x="346" y="346" on="1"/>
        <pt x="259" y="259" on="1"/>
        <pt x="136" y="259" on="1"/>
        <pt x="49" y="346" on="1"/>
        <pt x="49" y="604" on="1"/>
        <pt x="136" y="691" on="1"/>
        <pt x="259" y="691" on="1"/>
        <pt x="346" y="604" on="1"/>
      </contour>
      <contour>
        <pt x="346" y="87" on="1"/>
        <pt x="49" y="87" on="1"/>
        <pt x="49" y="173" on="1"/>
        <pt x="346" y="173" on="1"/>
      </contour>
      <contour>
        <pt x="247" y="346" on="1"/>
        <pt x="247" y="604" on="1"/>
        <pt x="148" y="604" on="1"/>
        <pt x="148" y="346" on="1"/>
      </contour>
    </TTGlyph>
    <TTGlyph name="oslash" xMin="78" yMin="-54" xMax="436" yMax="568">
      <contour>
        <pt x="436" y="87" on="1"/>
        <pt x="349" y="0" on="1"/>
        <pt x="164" y="0" on="1"/>
        <pt x="129" y="-54" on="1"/>
        <pt x="78" y="-2" on="1"/>
        <pt x="109" y="56" on="1"/>
        <pt x="78" y="87" on="1"/>
        <pt x="78" y="432" on="1"/>
        <pt x="164" y="519" on="1"/>
        <pt x="349" y="519" on="1"/>
        <pt x="378" y="568" on="1"/>
        <pt x="436" y="519" on="1"/>
        <pt x="401" y="467" on="1"/>
        <pt x="436" y="432" on="1"/>
      </contour>
      <contour>
        <pt x="307" y="432" on="1"/>
        <pt x="160" y="432" on="1"/>
        <pt x="160" y="163" on="1"/>
        <pt x="168" y="163" on="1"/>
      </contour>
      <contour>
        <pt x="341" y="87" on="1"/>
        <pt x="341" y="362" on="1"/>
        <pt x="333" y="362" on="1"/>
        <pt x="202" y="87" on="1"/>
      </contour>
    </TTGlyph>
    <TTGlyph name="otilde" xMin="77" yMin="0" xMax="434" yMax="784">
      <component glyphName="o" x="0" y="0" flags="0x204"/>
      <component glyphName="tilde" x="92" y="0" flags="0x4"/>
    </TTGlyph>
    <TTGlyph name="p" xMin="89" yMin="-259" xMax="447" yMax="519">
      <contour>
        <pt x="447" y="87" on="1"/>
        <pt x="362" y="0" on="1"/>
        <pt x="188" y="0" on="1"/>
        <pt x="188" y="-259" on="1"/>
        <pt x="89" y="-259" on="1"/>
        <pt x="89" y="519" on="1"/>
        <pt x="188" y="519" on="1"/>
        <pt x="188" y="444" on="1"/>
        <pt x="260" y="519" on="1"/>
        <pt x="362" y="519" on="1"/>
        <pt x="447" y="432" on="1"/>
      </contour>
      <contour>
        <pt x="348" y="87" on="1"/>
        <pt x="348" y="432" on="1"/>
        <pt x="188" y="432" on="1"/>
        <pt x="188" y="12" on="1"/>
        <pt x="260" y="87" on="1"/>
      </contour>
    </TTGlyph>
    <TTGlyph name="paragraph" xMin="87" yMin="-284" xMax="556" yMax="604">
      <contour>
        <pt x="556" y="604" on="1"/>
        <pt x="481" y="533" on="1"/>
        <pt x="481" y="-197" on="1"/>
        <pt x="396" y="-282" on="1"/>
        <pt x="396" y="519" on="1"/>
        <pt x="297" y="519" on="1"/>
        <pt x="297" y="-198" on="1"/>
        <pt x="210" y="-284" on="1"/>
        <pt x="210" y="173" on="1"/>
        <pt x="173" y="173" on="1"/>
        <pt x="87" y="259" on="1"/>
        <pt x="87" y="519" on="1"/>
        <pt x="173" y="604" on="1"/>
      </contour>
    </TTGlyph>
    <TTGlyph name="parenleft" xMin="111" yMin="-87" xMax="284" yMax="778">
      <contour>
        <pt x="284" y="-87" on="1"/>
        <pt x="198" y="-87" on="1"/>
        <pt x="111" y="0" on="1"/>
        <pt x="111" y="691" on="1"/>
        <pt x="198" y="778" on="1"/>
        <pt x="284" y="778" on="1"/>
        <pt x="284" y="691" on="1"/>
        <pt x="210" y="691" on="1"/>
        <pt x="210" y="0" on="1"/>
        <pt x="284" y="0" on="1"/>
      </contour>
    </TTGlyph>
    <TTGlyph name="parenright" xMin="62" yMin="-87" xMax="234" yMax="778">
      <contour>
        <pt x="62" y="0" on="1"/>
        <pt x="136" y="0" on="1"/>
        <pt x="136" y="691" on="1"/>
        <pt x="62" y="691" on="1"/>
        <pt x="62" y="778" on="1"/>
        <pt x="148" y="778" on="1"/>
        <pt x="234" y="691" on="1"/>
        <pt x="234" y="0" on="1"/>
        <pt x="148" y="-87" on="1"/>
        <pt x="62" y="-87" on="1"/>
      </contour>
    </TTGlyph>
    <TTGlyph name="percent" xMin="74" yMin="0" xMax="790" yMax="778">
      <contour>
        <pt x="790" y="87" on="1"/>
        <pt x="703" y="0" on="1"/>
        <pt x="618" y="0" on="1"/>
        <pt x="531" y="87" on="1"/>
        <pt x="531" y="346" on="1"/>
        <pt x="618" y="432" on="1"/>
        <pt x="703" y="432" on="1"/>
        <pt x="790" y="346" on="1"/>
      </contour>
      <contour>
        <pt x="629" y="778" on="1"/>
        <pt x="324" y="0" on="1"/>
        <pt x="246" y="0" on="1"/>
        <pt x="553" y="778" on="1"/>
      </contour>
      <contour>
        <pt x="333" y="432" on="1"/>
        <pt x="246" y="346" on="1"/>
        <pt x="160" y="346" on="1"/>
        <pt x="74" y="432" on="1"/>
        <pt x="74" y="691" on="1"/>
        <pt x="160" y="778" on="1"/>
        <pt x="246" y="778" on="1"/>
        <pt x="333" y="691" on="1"/>
      </contour>
      <contour>
        <pt x="703" y="87" on="1"/>
        <pt x="703" y="346" on="1"/>
        <pt x="618" y="346" on="1"/>
        <pt x="618" y="87" on="1"/>
      </contour>
      <contour>
        <pt x="247" y="432" on="1"/>
        <pt x="247" y="691" on="1"/>
        <pt x="160" y="691" on="1"/>
        <pt x="160" y="432" on="1"/>
      </contour>
    </TTGlyph>
    <TTGlyph name="period" xMin="99" yMin="0" xMax="210" yMax="111">
      <contour>
        <pt x="210" y="0" on="1"/>
        <pt x="99" y="0" on="1"/>
        <pt x="99" y="111" on="1"/>
        <pt x="210" y="111" on="1"/>
      </contour>
    </TTGlyph>
    <TTGlyph name="periodcentered" xMin="99" yMin="247" xMax="210" yMax="358">
      <component glyphName="period" x="0" y="247" flags="0x204"/>
    </TTGlyph>
    <TTGlyph name="plus" xMin="43" yMin="99" xMax="451" yMax="507">
      <contour>
        <pt x="451" y="259" on="1"/>
        <pt x="290" y="259" on="1"/>
        <pt x="290" y="99" on="1"/>
        <pt x="203" y="99" on="1"/>
        <pt x="203" y="259" on="1"/>
        <pt x="43" y="259" on="1"/>
        <pt x="43" y="346" on="1"/>
        <pt x="203" y="346" on="1"/>
        <pt x="203" y="507" on="1"/>
        <pt x="290" y="507" on="1"/>
        <pt x="290" y="346" on="1"/>
        <pt x="451" y="346" on="1"/>
      </contour>
    </TTGlyph>
    <TTGlyph name="plusminus" xMin="43" yMin="87" xMax="451" yMax="594">
      <component glyphName="plus" x="0" y="87" flags="0x4"/>
      <component glyphName="minus" x="0" y="-172" flags="0x4"/>
    </TTGlyph>
    <TTGlyph name="q" xMin="77" yMin="-271" xMax="434" yMax="519">
      <contour>
        <pt x="434" y="-173" on="1"/>
        <pt x="336" y="-271" on="1"/>
        <pt x="336" y="74" on="1"/>
        <pt x="262" y="0" on="1"/>
        <pt x="163" y="0" on="1"/>
        <pt x="77" y="87" on="1"/>
        <pt x="77" y="432" on="1"/>
        <pt x="163" y="519" on="1"/>
        <pt x="434" y="519" on="1"/>
      </contour>
      <contour>
        <pt x="336" y="87" on="1"/>
        <pt x="336" y="507" on="1"/>
        <pt x="262" y="432" on="1"/>
        <pt x="176" y="432" on="1"/>
        <pt x="176" y="87" on="1"/>
      </contour>
    </TTGlyph>
    <TTGlyph name="question" xMin="49" yMin="0" xMax="396" yMax="691">
      <contour>
        <pt x="396" y="358" on="1"/>
        <pt x="210" y="173" on="1"/>
        <pt x="210" y="284" on="1"/>
        <pt x="297" y="370" on="1"/>
        <pt x="297" y="604" on="1"/>
        <pt x="148" y="604" on="1"/>
        <pt x="148" y="432" on="1"/>
        <pt x="49" y="432" on="1"/>
        <pt x="49" y="604" on="1"/>
        <pt x="136" y="691" on="1"/>
        <pt x="309" y="691" on="1"/>
        <pt x="396" y="604" on="1"/>
      </contour>
      <contour>
        <pt x="284" y="0" on="1"/>
        <pt x="173" y="0" on="1"/>
        <pt x="173" y="111" on="1"/>
        <pt x="284" y="111" on="1"/>
      </contour>
    </TTGlyph>
    <TTGlyph name="questiondown" xMin="62" yMin="-173" xMax="408" yMax="519">
      <contour>
        <pt x="62" y="160" on="1"/>
        <pt x="247" y="346" on="1"/>
        <pt x="247" y="234" on="1"/>
        <pt x="160" y="148" on="1"/>
        <pt x="160" y="-87" on="1"/>
        <pt x="309" y="-87" on="1"/>
        <pt x="309" y="87" on="1"/>
        <pt x="408" y="87" on="1"/>
        <pt x="408" y="-87" on="1"/>
        <pt x="321" y="-173" on="1"/>
        <pt x="148" y="-173" on="1"/>
        <pt x="62" y="-87" on="1"/>
      </contour>
      <contour>
        <pt x="173" y="519" on="1"/>
        <pt x="284" y="519" on="1"/>
        <pt x="284" y="408" on="1"/>
        <pt x="173" y="408" on="1"/>
      </contour>
    </TTGlyph>
    <TTGlyph name="quotedbl" xMin="99" yMin="481" xMax="384" yMax="778">
      <component glyphName="quotesingle" x="0" y="0" flags="0x4"/>
      <component glyphName="quotesingle" x="186" y="0" flags="0x4"/>
    </TTGlyph>
    <TTGlyph name="quotedblbase" xMin="64" yMin="-186" xMax="407" yMax="111">
      <component glyphName="comma" x="-23" y="0" flags="0x4"/>
      <component glyphName="comma" x="173" y="0" flags="0x4"/>
    </TTGlyph>
    <TTGlyph name="quotedblleft" xMin="87" yMin="432" xMax="432" yMax="729">
      <contour>
        <pt x="87" y="647" on="1"/>
        <pt x="173" y="729" on="1"/>
        <pt x="173" y="543" on="1"/>
        <pt x="234" y="543" on="1"/>
        <pt x="234" y="432" on="1"/>
        <pt x="160" y="432" on="1"/>
        <pt x="87" y="507" on="1"/>
      </contour>
      <contour>
        <pt x="284" y="647" on="1"/>
        <pt x="370" y="729" on="1"/>
        <pt x="370" y="543" on="1"/>
        <pt x="432" y="543" on="1"/>
        <pt x="432" y="432" on="1"/>
        <pt x="358" y="432" on="1"/>
        <pt x="284" y="507" on="1"/>
      </contour>
    </TTGlyph>
    <TTGlyph name="quotedblright" xMin="64" yMin="418" xMax="407" yMax="715">
      <component glyphName="comma" x="-23" y="604" flags="0x4"/>
      <component glyphName="comma" x="173" y="604" flags="0x4"/>
    </TTGlyph>
    <TTGlyph name="quoteleft" xMin="87" yMin="432" xMax="234" yMax="729">
      <contour>
        <pt x="87" y="647" on="1"/>
        <pt x="173" y="729" on="1"/>
        <pt x="173" y="543" on="1"/>
        <pt x="234" y="543" on="1"/>
        <pt x="234" y="432" on="1"/>
        <pt x="160" y="432" on="1"/>
        <pt x="87" y="507" on="1"/>
      </contour>
    </TTGlyph>
    <TTGlyph name="quoteright" xMin="64" yMin="418" xMax="211" yMax="715">
      <component glyphName="comma" x="-23" y="604" flags="0x4"/>
    </TTGlyph>
    <TTGlyph name="quotesinglbase" xMin="64" yMin="-186" xMax="211" yMax="111">
      <component glyphName="comma" x="-23" y="0" flags="0x4"/>
    </TTGlyph>
    <TTGlyph name="quotesingle" xMin="99" yMin="481" xMax="198" yMax="778">
      <contour>
        <pt x="198" y="579" on="1"/>
        <pt x="99" y="481" on="1"/>
        <pt x="99" y="778" on="1"/>
        <pt x="198" y="778" on="1"/>
      </contour>
    </TTGlyph>
    <TTGlyph name="r" xMin="87" yMin="0" xMax="432" yMax="519">
      <contour>
        <pt x="432" y="346" on="1"/>
        <pt x="333" y="247" on="1"/>
        <pt x="333" y="432" on="1"/>
        <pt x="186" y="432" on="1"/>
        <pt x="186" y="0" on="1"/>
        <pt x="87" y="0" on="1"/>
        <pt x="87" y="519" on="1"/>
        <pt x="186" y="519" on="1"/>
        <pt x="186" y="444" on="1"/>
        <pt x="258" y="519" on="1"/>
        <pt x="346" y="519" on="1"/>
        <pt x="432" y="432" on="1"/>
      </contour>
    </TTGlyph>
    <TTGlyph name="registered" xMin="87" yMin="87" xMax="778" yMax="864">
      <contour>
        <pt x="778" y="173" on="1"/>
        <pt x="692" y="87" on="1"/>
        <pt x="173" y="87" on="1"/>
        <pt x="87" y="173" on="1"/>
        <pt x="87" y="778" on="1"/>
        <pt x="173" y="864" on="1"/>
        <pt x="691" y="864" on="1"/>
        <pt x="778" y="778" on="1"/>
      </contour>
      <contour>
        <pt x="679" y="173" on="1"/>
        <pt x="679" y="778" on="1"/>
        <pt x="186" y="778" on="1"/>
        <pt x="186" y="173" on="1"/>
      </contour>
      <contour>
        <pt x="644" y="259" on="1"/>
        <pt x="529" y="259" on="1"/>
        <pt x="382" y="404" on="1"/>
        <pt x="382" y="259" on="1"/>
        <pt x="284" y="259" on="1"/>
        <pt x="284" y="520" on="1"/>
        <pt x="370" y="604" on="1"/>
        <pt x="271" y="604" on="1"/>
        <pt x="271" y="691" on="1"/>
        <pt x="520" y="691" on="1"/>
        <pt x="604" y="604" on="1"/>
        <pt x="604" y="442" on="1"/>
        <pt x="531" y="367" on="1"/>
      </contour>
      <contour>
        <pt x="382" y="420" on="1"/>
        <pt x="507" y="420" on="1"/>
        <pt x="507" y="604" on="1"/>
        <pt x="382" y="604" on="1"/>
      </contour>
    </TTGlyph>
    <TTGlyph name="ring" xMin="37" yMin="587" xMax="247" yMax="798">
      <contour>
        <pt x="247" y="641" on="1"/>
        <pt x="191" y="587" on="1"/>
        <pt x="92" y="587" on="1"/>
        <pt x="37" y="641" on="1"/>
        <pt x="37" y="742" on="1"/>
        <pt x="92" y="798" on="1"/>
        <pt x="191" y="798" on="1"/>
        <pt x="247" y="742" on="1"/>
      </contour>
      <contour>
        <pt x="203" y="691" on="1"/>
        <pt x="144" y="753" on="1"/>
        <pt x="81" y="691" on="1"/>
        <pt x="143" y="630" on="1"/>
      </contour>
    </TTGlyph>
    <TTGlyph name="ring.case" xMin="37" yMin="691" xMax="271" yMax="902">
      <contour>
        <pt x="271" y="753" on="1"/>
        <pt x="208" y="691" on="1"/>
        <pt x="100" y="691" on="1"/>
        <pt x="37" y="753" on="1"/>
        <pt x="37" y="840" on="1"/>
        <pt x="101" y="902" on="1"/>
        <pt x="209" y="902" on="1"/>
        <pt x="271" y="840" on="1"/>
      </contour>
      <contour>
        <pt x="222" y="797" on="1"/>
        <pt x="157" y="863" on="1"/>
        <pt x="90" y="797" on="1"/>
        <pt x="156" y="730" on="1"/>
      </contour>
    </TTGlyph>
    <TTGlyph name="s" xMin="34" yMin="0" xMax="380" yMax="519">
      <contour>
        <pt x="380" y="432" on="1"/>
        <pt x="133" y="432" on="1"/>
        <pt x="133" y="346" on="1"/>
        <pt x="269" y="346" on="1"/>
        <pt x="356" y="259" on="1"/>
        <pt x="356" y="87" on="1"/>
        <pt x="269" y="0" on="1"/>
        <pt x="34" y="0" on="1"/>
        <pt x="34" y="87" on="1"/>
        <pt x="257" y="87" on="1"/>
        <pt x="257" y="259" on="1"/>
        <pt x="121" y="259" on="1"/>
        <pt x="34" y="346" on="1"/>
        <pt x="34" y="432" on="1"/>
        <pt x="121" y="519" on="1"/>
        <pt x="292" y="519" on="1"/>
      </contour>
    </TTGlyph>
    <TTGlyph name="section" xMin="87" yMin="-259" xMax="432" yMax="691">
      <contour>
        <pt x="408" y="-173" on="1"/>
        <pt x="321" y="-259" on="1"/>
        <pt x="173" y="-259" on="1"/>
        <pt x="87" y="-173" on="1"/>
        <pt x="307" y="-173" on="1"/>
        <pt x="307" y="-100" on="1"/>
        <pt x="102" y="103" on="1"/>
        <pt x="102" y="321" on="1"/>
        <pt x="189" y="410" on="1"/>
        <pt x="111" y="488" on="1"/>
        <pt x="111" y="604" on="1"/>
        <pt x="198" y="691" on="1"/>
        <pt x="347" y="691" on="1"/>
        <pt x="432" y="604" on="1"/>
        <pt x="203" y="604" on="1"/>
        <pt x="203" y="532" on="1"/>
        <pt x="432" y="304" on="1"/>
        <pt x="432" y="93" on="1"/>
        <pt x="338" y="0" on="1"/>
        <pt x="408" y="-68" on="1"/>
      </contour>
      <contour>
        <pt x="196" y="403" on="1"/>
        <pt x="197" y="142" on="1"/>
        <pt x="334" y="3" on="1"/>
        <pt x="334" y="266" on="1"/>
      </contour>
    </TTGlyph>
    <TTGlyph name="semicolon" xMin="64" yMin="-186" xMax="211" yMax="444">
      <component glyphName="comma" x="-23" y="0" flags="0x4"/>
      <component glyphName="period" x="-23" y="333" flags="0x4"/>
    </TTGlyph>
    <TTGlyph name="seven" xMin="56" yMin="0" xMax="413" yMax="691">
      <contour>
        <pt x="413" y="332" on="1"/>
        <pt x="259" y="179" on="1"/>
        <pt x="259" y="0" on="1"/>
        <pt x="160" y="0" on="1"/>
        <pt x="160" y="207" on="1"/>
        <pt x="314" y="362" on="1"/>
        <pt x="314" y="604" on="1"/>
        <pt x="154" y="604" on="1"/>
        <pt x="154" y="432" on="1"/>
        <pt x="56" y="432" on="1"/>
        <pt x="56" y="691" on="1"/>
        <pt x="413" y="691" on="1"/>
      </contour>
    </TTGlyph>
    <TTGlyph name="six" xMin="74" yMin="0" xMax="432" yMax="691">
      <contour>
        <pt x="432" y="87" on="1"/>
        <pt x="346" y="0" on="1"/>
        <pt x="160" y="0" on="1"/>
        <pt x="74" y="87" on="1"/>
        <pt x="74" y="604" on="1"/>
        <pt x="160" y="691" on="1"/>
        <pt x="420" y="691" on="1"/>
        <pt x="420" y="604" on="1"/>
        <pt x="173" y="604" on="1"/>
        <pt x="173" y="432" on="1"/>
        <pt x="346" y="432" on="1"/>
        <pt x="432" y="346" on="1"/>
      </contour>
      <contour>
        <pt x="333" y="87" on="1"/>
        <pt x="333" y="346" on="1"/>
        <pt x="173" y="346" on="1"/>
        <pt x="173" y="87" on="1"/>
      </contour>
    </TTGlyph>
    <TTGlyph name="slash" xMin="-24" yMin="-87" xMax="408" yMax="778">
      <contour>
        <pt x="408" y="778" on="1"/>
        <pt x="67" y="-87" on="1"/>
        <pt x="-24" y="-87" on="1"/>
        <pt x="320" y="778" on="1"/>
      </contour>
    </TTGlyph>
    <TTGlyph name="sterling" xMin="49" yMin="0" xMax="541" yMax="691">
      <contour>
        <pt x="541" y="604" on="1"/>
        <pt x="431" y="496" on="1"/>
        <pt x="431" y="604" on="1"/>
        <pt x="209" y="604" on="1"/>
        <pt x="209" y="543" on="1"/>
        <pt x="332" y="420" on="1"/>
        <pt x="456" y="420" on="1"/>
        <pt x="380" y="346" on="1"/>
        <pt x="282" y="346" on="1"/>
        <pt x="282" y="173" on="1"/>
        <pt x="197" y="87" on="1"/>
        <pt x="431" y="87" on="1"/>
        <pt x="431" y="173" on="1"/>
        <pt x="530" y="271" on="1"/>
        <pt x="530" y="87" on="1"/>
        <pt x="443" y="0" on="1"/>
        <pt x="98" y="0" on="1"/>
        <pt x="184" y="87" on="1"/>
        <pt x="184" y="297" on="1"/>
        <pt x="233" y="346" on="1"/>
        <pt x="49" y="346" on="1"/>
        <pt x="123" y="420" on="1"/>
        <pt x="221" y="420" on="1"/>
        <pt x="98" y="543" on="1"/>
        <pt x="98" y="604" on="1"/>
        <pt x="184" y="691" on="1"/>
        <pt x="454" y="691" on="1"/>
      </contour>
    </TTGlyph>
    <TTGlyph name="t" xMin="-31" yMin="0" xMax="340" yMax="691">
      <contour>
        <pt x="340" y="519" on="1"/>
        <pt x="253" y="432" on="1"/>
        <pt x="191" y="432" on="1"/>
        <pt x="191" y="87" on="1"/>
        <pt x="314" y="87" on="1"/>
        <pt x="314" y="0" on="1"/>
        <pt x="179" y="0" on="1"/>
        <pt x="92" y="87" on="1"/>
        <pt x="92" y="432" on="1"/>
        <pt x="-31" y="432" on="1"/>
        <pt x="56" y="519" on="1"/>
        <pt x="92" y="519" on="1"/>
        <pt x="92" y="592" on="1"/>
        <pt x="191" y="691" on="1"/>
        <pt x="191" y="519" on="1"/>
      </contour>
    </TTGlyph>
    <TTGlyph name="thorn" xMin="92" yMin="-259" xMax="451" yMax="802">
      <contour>
        <pt x="451" y="87" on="1"/>
        <pt x="364" y="0" on="1"/>
        <pt x="191" y="0" on="1"/>
        <pt x="191" y="-259" on="1"/>
        <pt x="92" y="-259" on="1"/>
        <pt x="92" y="707" on="1"/>
        <pt x="191" y="802" on="1"/>
        <pt x="191" y="444" on="1"/>
        <pt x="264" y="519" on="1"/>
        <pt x="364" y="519" on="1"/>
        <pt x="451" y="432" on="1"/>
      </contour>
      <contour>
        <pt x="352" y="87" on="1"/>
        <pt x="352" y="432" on="1"/>
        <pt x="191" y="432" on="1"/>
        <pt x="191" y="12" on="1"/>
        <pt x="264" y="87" on="1"/>
      </contour>
    </TTGlyph>
    <TTGlyph name="three" xMin="49" yMin="0" xMax="401" yMax="691">
      <contour>
        <pt x="401" y="87" on="1"/>
        <pt x="316" y="0" on="1"/>
        <pt x="134" y="0" on="1"/>
        <pt x="49" y="87" on="1"/>
        <pt x="49" y="173" on="1"/>
        <pt x="148" y="173" on="1"/>
        <pt x="148" y="87" on="1"/>
        <pt x="302" y="87" on="1"/>
        <pt x="302" y="346" on="1"/>
        <pt x="140" y="346" on="1"/>
        <pt x="140" y="418" on="1"/>
        <pt x="314" y="592" on="1"/>
        <pt x="314" y="604" on="1"/>
        <pt x="49" y="604" on="1"/>
        <pt x="49" y="691" on="1"/>
        <pt x="401" y="691" on="1"/>
        <pt x="401" y="580" on="1"/>
        <pt x="252" y="432" on="1"/>
        <pt x="252" y="420" on="1"/>
        <pt x="314" y="420" on="1"/>
        <pt x="401" y="333" on="1"/>
      </contour>
    </TTGlyph>
    <TTGlyph name="threequarters" xMin="43" yMin="0" xMax="778" yMax="778">
      <component glyphName="foursuperior" x="426" y="-345" flags="0x4"/>
      <component glyphName="threesuperior" x="-6" y="0" flags="0x4"/>
      <component glyphName="fraction" x="216" y="0" flags="0x4"/>
    </TTGlyph>
    <TTGlyph name="threesuperior" xMin="49" yMin="346" xMax="321" yMax="778">
      <contour>
        <pt x="321" y="432" on="1"/>
        <pt x="234" y="346" on="1"/>
        <pt x="136" y="346" on="1"/>
        <pt x="49" y="432" on="1"/>
        <pt x="226" y="432" on="1"/>
        <pt x="226" y="546" on="1"/>
        <pt x="138" y="546" on="1"/>
        <pt x="138" y="608" on="1"/>
        <pt x="216" y="686" on="1"/>
        <pt x="216" y="691" on="1"/>
        <pt x="62" y="691" on="1"/>
        <pt x="62" y="778" on="1"/>
        <pt x="321" y="778" on="1"/>
        <pt x="321" y="707" on="1"/>
        <pt x="232" y="619" on="1"/>
        <pt x="321" y="531" on="1"/>
      </contour>
    </TTGlyph>
    <TTGlyph name="tilde" xMin="31" yMin="596" xMax="314" yMax="784">
      <contour>
        <pt x="314" y="666" on="1"/>
        <pt x="243" y="596" on="1"/>
        <pt x="103" y="702" on="1"/>
        <pt x="102" y="607" on="1"/>
        <pt x="31" y="607" on="1"/>
        <pt x="31" y="703" on="1"/>
        <pt x="110" y="784" on="1"/>
        <pt x="246" y="682" on="1"/>
        <pt x="246" y="778" on="1"/>
        <pt x="314" y="778" on="1"/>
      </contour>
    </TTGlyph>
    <TTGlyph name="tilde.case" xMin="31" yMin="774" xMax="314" yMax="920">
      <contour>
        <pt x="314" y="844" on="1"/>
        <pt x="243" y="774" on="1"/>
        <pt x="103" y="844" on="1"/>
        <pt x="102" y="779" on="1"/>
        <pt x="31" y="779" on="1"/>
        <pt x="31" y="852" on="1"/>
        <pt x="101" y="920" on="1"/>
        <pt x="246" y="852" on="1"/>
        <pt x="246" y="913" on="1"/>
        <pt x="314" y="913" on="1"/>
      </contour>
    </TTGlyph>
    <TTGlyph name="two" xMin="56" yMin="0" xMax="408" yMax="691">
      <contour>
        <pt x="408" y="362" on="1"/>
        <pt x="142" y="99" on="1"/>
        <pt x="142" y="87" on="1"/>
        <pt x="401" y="87" on="1"/>
        <pt x="401" y="0" on="1"/>
        <pt x="56" y="0" on="1"/>
        <pt x="56" y="134" on="1"/>
        <pt x="309" y="386" on="1"/>
        <pt x="309" y="604" on="1"/>
        <pt x="154" y="604" on="1"/>
        <pt x="154" y="432" on="1"/>
        <pt x="56" y="432" on="1"/>
        <pt x="56" y="604" on="1"/>
        <pt x="141" y="691" on="1"/>
        <pt x="322" y="691" on="1"/>
        <pt x="408" y="604" on="1"/>
      </contour>
    </TTGlyph>
    <TTGlyph name="twosuperior" xMin="49" yMin="346" xMax="321" yMax="778">
      <contour>
        <pt x="321" y="346" on="1"/>
        <pt x="62" y="346" on="1"/>
        <pt x="62" y="463" on="1"/>
        <pt x="234" y="633" on="1"/>
        <pt x="234" y="691" on="1"/>
        <pt x="49" y="691" on="1"/>
        <pt x="136" y="778" on="1"/>
        <pt x="234" y="778" on="1"/>
        <pt x="321" y="691" on="1"/>
        <pt x="321" y="610" on="1"/>
        <pt x="154" y="444" on="1"/>
        <pt x="154" y="432" on="1"/>
        <pt x="321" y="432" on="1"/>
      </contour>
    </TTGlyph>
    <TTGlyph name="u" xMin="80" yMin="0" xMax="438" yMax="519">
      <contour>
        <pt x="438" y="0" on="1"/>
        <pt x="340" y="0" on="1"/>
        <pt x="340" y="74" on="1"/>
        <pt x="266" y="0" on="1"/>
        <pt x="167" y="0" on="1"/>
        <pt x="80" y="87" on="1"/>
        <pt x="80" y="519" on="1"/>
        <pt x="179" y="519" on="1"/>
        <pt x="179" y="87" on="1"/>
        <pt x="340" y="87" on="1"/>
        <pt x="340" y="519" on="1"/>
        <pt x="438" y="519" on="1"/>
      </contour>
    </TTGlyph>
    <TTGlyph name="uacute" xMin="80" yMin="0" xMax="469" yMax="778">
      <component glyphName="u" x="0" y="0" flags="0x204"/>
      <component glyphName="acute" x="210" y="0" flags="0x4"/>
    </TTGlyph>
    <TTGlyph name="ucircumflex" xMin="80" yMin="0" xMax="438" yMax="790">
      <component glyphName="u" x="0" y="0" flags="0x204"/>
      <component glyphName="circumflex" x="104" y="0" flags="0x4"/>
    </TTGlyph>
    <TTGlyph name="udieresis" xMin="80" yMin="0" xMax="438" yMax="716">
      <component glyphName="u" x="0" y="0" flags="0x204"/>
      <component glyphName="dieresis" x="100" y="0" flags="0x4"/>
    </TTGlyph>
    <TTGlyph name="ugrave" xMin="62" yMin="0" xMax="438" yMax="778">
      <component glyphName="u" x="0" y="0" flags="0x204"/>
      <component glyphName="grave" x="136" y="0" flags="0x4"/>
    </TTGlyph>
    <TTGlyph name="underscore" xMin="-7" yMin="-173" xMax="500" yMax="-87">
      <contour>
        <pt x="500" y="-173" on="1"/>
        <pt x="-7" y="-173" on="1"/>
        <pt x="-7" y="-87" on="1"/>
        <pt x="500" y="-87" on="1"/>
      </contour>
    </TTGlyph>
    <TTGlyph name="uni00AD" xMin="19" yMin="259" xMax="314" yMax="346">
      <component glyphName="hyphen" x="0" y="0" flags="0x204"/>
    </TTGlyph>
    <TTGlyph name="v" xMin="62" yMin="0" xMax="420" yMax="543">
      <contour>
        <pt x="420" y="138" on="1"/>
        <pt x="281" y="0" on="1"/>
        <pt x="200" y="0" on="1"/>
        <pt x="62" y="138" on="1"/>
        <pt x="62" y="543" on="1"/>
        <pt x="160" y="444" on="1"/>
        <pt x="160" y="154" on="1"/>
        <pt x="241" y="76" on="1"/>
        <pt x="321" y="154" on="1"/>
        <pt x="321" y="444" on="1"/>
        <pt x="420" y="543" on="1"/>
      </contour>
    </TTGlyph>
    <TTGlyph name="w" xMin="62" yMin="0" xMax="654" yMax="543">
      <contour>
        <pt x="654" y="126" on="1"/>
        <pt x="529" y="0" on="1"/>
        <pt x="444" y="0" on="1"/>
        <pt x="358" y="86" on="1"/>
        <pt x="271" y="0" on="1"/>
        <pt x="188" y="0" on="1"/>
        <pt x="62" y="126" on="1"/>
        <pt x="62" y="543" on="1"/>
        <pt x="160" y="444" on="1"/>
        <pt x="160" y="142" on="1"/>
        <pt x="234" y="69" on="1"/>
        <pt x="309" y="148" on="1"/>
        <pt x="309" y="444" on="1"/>
        <pt x="408" y="543" on="1"/>
        <pt x="408" y="148" on="1"/>
        <pt x="481" y="69" on="1"/>
        <pt x="556" y="142" on="1"/>
        <pt x="556" y="444" on="1"/>
        <pt x="654" y="543" on="1"/>
      </contour>
    </TTGlyph>
    <TTGlyph name="x" xMin="43" yMin="0" xMax="401" yMax="548">
      <contour>
        <pt x="401" y="0" on="1"/>
        <pt x="302" y="0" on="1"/>
        <pt x="302" y="167" on="1"/>
        <pt x="222" y="246" on="1"/>
        <pt x="142" y="167" on="1"/>
        <pt x="142" y="0" on="1"/>
        <pt x="43" y="0" on="1"/>
        <pt x="43" y="178" on="1"/>
        <pt x="168" y="301" on="1"/>
        <pt x="43" y="424" on="1"/>
        <pt x="43" y="548" on="1"/>
        <pt x="222" y="367" on="1"/>
        <pt x="401" y="548" on="1"/>
        <pt x="401" y="424" on="1"/>
        <pt x="276" y="301" on="1"/>
        <pt x="401" y="179" on="1"/>
      </contour>
    </TTGlyph>
    <TTGlyph name="y" xMin="68" yMin="-259" xMax="438" yMax="519">
      <contour>
        <pt x="438" y="-173" on="1"/>
        <pt x="352" y="-259" on="1"/>
        <pt x="68" y="-259" on="1"/>
        <pt x="154" y="-173" on="1"/>
        <pt x="340" y="-173" on="1"/>
        <pt x="340" y="74" on="1"/>
        <pt x="267" y="0" on="1"/>
        <pt x="167" y="0" on="1"/>
        <pt x="80" y="87" on="1"/>
        <pt x="80" y="519" on="1"/>
        <pt x="179" y="519" on="1"/>
        <pt x="179" y="87" on="1"/>
        <pt x="340" y="87" on="1"/>
        <pt x="340" y="519" on="1"/>
        <pt x="438" y="519" on="1"/>
      </contour>
    </TTGlyph>
    <TTGlyph name="yacute" xMin="68" yMin="-259" xMax="445" yMax="778">
      <component glyphName="y" x="0" y="0" flags="0x4"/>
      <component glyphName="acute" x="186" y="0" flags="0x4"/>
    </TTGlyph>
    <TTGlyph name="ydieresis" xMin="68" yMin="-259" xMax="438" yMax="716">
      <component glyphName="y" x="0" y="0" flags="0x204"/>
      <component glyphName="dieresis" x="104" y="0" flags="0x4"/>
    </TTGlyph>
    <TTGlyph name="yen" xMin="62" yMin="0" xMax="543" yMax="691">
      <contour>
        <pt x="543" y="173" on="1"/>
        <pt x="458" y="87" on="1"/>
        <pt x="352" y="87" on="1"/>
        <pt x="352" y="0" on="1"/>
        <pt x="253" y="0" on="1"/>
        <pt x="253" y="87" on="1"/>
        <pt x="63" y="87" on="1"/>
        <pt x="148" y="173" on="1"/>
        <pt x="253" y="173" on="1"/>
        <pt x="253" y="259" on="1"/>
        <pt x="62" y="259" on="1"/>
        <pt x="147" y="346" on="1"/>
        <pt x="248" y="346" on="1"/>
        <pt x="86" y="508" on="1"/>
        <pt x="87" y="691" on="1"/>
        <pt x="186" y="691" on="1"/>
        <pt x="186" y="524" on="1"/>
        <pt x="302" y="408" on="1"/>
        <pt x="420" y="524" on="1"/>
        <pt x="420" y="691" on="1"/>
        <pt x="519" y="691" on="1"/>
        <pt x="519" y="508" on="1"/>
        <pt x="358" y="346" on="1"/>
        <pt x="543" y="346" on="1"/>
        <pt x="454" y="259" on="1"/>
        <pt x="352" y="259" on="1"/>
        <pt x="352" y="173" on="1"/>
      </contour>
    </TTGlyph>
    <TTGlyph name="z" xMin="43" yMin="0" xMax="352" yMax="519">
      <contour>
        <pt x="352" y="0" on="1"/>
        <pt x="43" y="0" on="1"/>
        <pt x="43" y="164" on="1"/>
        <pt x="266" y="388" on="1"/>
        <pt x="266" y="432" on="1"/>
        <pt x="43" y="432" on="1"/>
        <pt x="43" y="519" on="1"/>
        <pt x="352" y="519" on="1"/>
        <pt x="352" y="349" on="1"/>
        <pt x="133" y="130" on="1"/>
        <pt x="133" y="87" on="1"/>
        <pt x="352" y="87" on="1"/>
      </contour>
    </TTGlyph>
    <TTGlyph name="zero" xMin="74" yMin="0" xMax="420" yMax="691">
      <contour>
        <pt x="420" y="87" on="1"/>
        <pt x="333" y="0" on="1"/>
        <pt x="160" y="0" on="1"/>
        <pt x="74" y="87" on="1"/>
        <pt x="74" y="604" on="1"/>
        <pt x="160" y="691" on="1"/>
        <pt x="333" y="691" on="1"/>
        <pt x="420" y="604" on="1"/>
      </contour>
      <contour>
        <pt x="321" y="87" on="1"/>
        <pt x="321" y="604" on="1"/>
        <pt x="173" y="604" on="1"/>
        <pt x="173" y="87" on="1"/>
      </contour>
    </TTGlyph>
</ttFont>
